<svg width="25" height="24" viewBox="0 0 25 24" fill="none" xmlns="http://www.w3.org/2000/svg">
<path d="M22.2559 17.5088C22.7741 16.4339 23.0284 15.2509 22.9976 14.058C22.9668 12.8652 22.6518 11.6969 22.0788 10.6502C21.5058 9.60347 20.6914 8.7086 19.7031 8.0399C18.7148 7.37119 17.5812 6.94795 16.3965 6.80533C16.0023 5.88879 15.4292 5.06013 14.7107 4.36785C13.9923 3.67557 13.1429 3.1336 12.2124 2.77366C11.2819 2.41373 10.2889 2.24308 9.29157 2.2717C8.29427 2.30032 7.31271 2.52764 6.40435 2.94034C5.496 3.35304 4.67912 3.94283 4.00155 4.67517C3.32398 5.40751 2.79934 6.26768 2.45834 7.20531C2.11735 8.14294 1.96687 9.13918 2.0157 10.1357C2.06453 11.1322 2.3117 12.109 2.74273 13.0088L2.06117 15.3253C1.98496 15.5839 1.97987 15.8583 2.04642 16.1196C2.11297 16.3808 2.2487 16.6193 2.43934 16.81C2.62998 17.0006 2.86848 17.1363 3.12974 17.2029C3.391 17.2694 3.66537 17.2643 3.92398 17.1881L6.24054 16.5066C6.98438 16.864 7.78187 17.0967 8.60117 17.1956C8.99921 18.1283 9.58224 18.9705 10.315 19.6714C11.0478 20.3723 11.9151 20.9174 12.8645 21.2736C13.8139 21.6298 14.8256 21.7898 15.8386 21.7439C16.8516 21.698 17.8448 21.4472 18.758 21.0066L21.0746 21.6881C21.3331 21.7643 21.6074 21.7693 21.8685 21.7028C22.1297 21.6363 22.3681 21.5007 22.5587 21.3101C22.7493 21.1196 22.885 20.8813 22.9517 20.6202C23.0183 20.3591 23.0134 20.0848 22.9374 19.8263L22.2559 17.5088ZM6.31179 14.9531C6.24012 14.9533 6.16882 14.9634 6.09992 14.9831L3.49929 15.75L4.26523 13.1475C4.3197 12.9595 4.29851 12.7576 4.20617 12.585C3.52771 11.3162 3.3278 9.8458 3.64288 8.44189C3.95797 7.03798 4.76706 5.79404 5.92268 4.93684C7.07829 4.07964 8.50347 3.66625 9.93841 3.77205C11.3733 3.87784 12.7225 4.49576 13.7399 5.51316C14.7573 6.53057 15.3752 7.87971 15.481 9.31465C15.5868 10.7496 15.1734 12.1748 14.3162 13.3304C13.459 14.486 12.2151 15.2951 10.8112 15.6102C9.40726 15.9253 7.93687 15.7254 6.66804 15.0469C6.55893 14.9865 6.43649 14.9543 6.31179 14.9531ZM20.7296 17.6466L21.4993 20.25L18.8968 19.4841C18.7088 19.4296 18.5069 19.4508 18.3343 19.5431C16.9532 20.2806 15.3387 20.4495 13.8349 20.0138C12.3311 19.578 11.0569 18.5722 10.284 17.2106C11.3109 17.1035 12.3046 16.7852 13.2027 16.2759C14.1008 15.7665 14.884 15.0771 15.5031 14.2508C16.1222 13.4245 16.5638 12.4792 16.8003 11.4741C17.0368 10.4691 17.0631 9.426 16.8774 8.41033C17.7722 8.62123 18.6065 9.03491 19.316 9.61942C20.0255 10.2039 20.5912 10.9437 20.9694 11.7815C21.3476 12.6193 21.5283 13.5329 21.4975 14.4516C21.4666 15.3704 21.2251 16.2697 20.7915 17.0803C20.6981 17.254 20.6769 17.4574 20.7324 17.6466H20.7296Z" fill="white"/>
</svg>
