<svg width="358" height="495" viewBox="0 0 358 495" fill="none" xmlns="http://www.w3.org/2000/svg">
<path d="M251.91 118.62V122.549L251.037 122.985L250.6 123.859L251.91 125.168L254.966 126.915L258.022 127.788L266.317 133.027L271.12 137.829L280.724 147.434L283.344 150.054L286.4 154.856L288.146 157.476L290.329 157.912L291.639 157.039L291.202 154.856V152.673L293.385 150.49L294.695 150.054L296.441 149.617L298.188 151.363L300.371 152.673L302.554 155.293H304.3L305.173 153.546H309.102L310.412 152.237L313.032 148.744L316.088 146.998H320.017L323.51 149.18L326.129 152.673L333.988 153.546L336.171 156.166L339.227 158.349L342.283 157.912L346.212 157.039L347.522 155.293V152.673L348.832 151.363L351.015 152.673L352.761 154.856H355.38L358 156.602L356.254 157.476L354.071 158.785L354.507 161.841L354.944 165.334L352.324 169.7L348.832 170.573L347.959 177.122L349.705 179.741L353.198 184.98V188.91L350.141 193.712L347.959 195.022L347.085 193.276H344.902L340.537 195.459H330.932L331.805 217.724L333.115 219.907L335.734 221.217L336.171 224.273L333.115 224.71L330.059 225.146L327.439 224.273L325.256 224.71L322.2 227.766L312.595 233.878L313.032 235.624H315.215L318.271 235.188L319.58 238.244L320.017 243.046L321.763 246.102L327.002 252.215L328.749 255.271L327.002 257.017L325.693 260.073L324.383 262.693L325.256 265.312L326.566 267.059L325.693 268.805L327.002 270.115L326.129 271.424L323.073 273.607L320.017 277.973L315.215 281.902L312.595 284.085L311.722 288.451L310.412 291.071L308.229 291.507L304.3 293.254L300.371 293.69L297.315 295.437L295.568 304.168L292.076 305.478L289.893 307.224H288.583L287.71 305.041L286.4 303.295L285.527 303.732L283.344 306.351H280.288L278.541 307.661L279.415 309.407L277.232 309.844L275.049 313.773L272.429 314.646L269.81 317.702L271.12 319.885L272.429 321.632L269.81 322.941V326.871L271.993 329.49V332.11L274.176 335.602H276.359L277.668 333.42L283.78 333.856L285.09 335.602L285.527 339.532L288.146 342.588L288.583 346.517L291.202 347.827V350.01L287.273 350.446L284.217 349.573L282.034 350.01L279.851 352.629L277.668 353.502L275.485 351.32L271.556 351.756L268.937 354.376L266.754 356.995L265.007 359.615L262.388 360.488L258.022 365.727L255.402 366.6L253.656 364.854L252.346 361.361L253.22 355.685L252.346 350.883L249.727 350.01L249.29 348.263L248.417 344.771L245.361 343.461H242.305L240.122 345.207L239.249 347.39L237.939 350.01L237.502 355.685L236.629 356.995L233.573 357.432H230.954L228.771 360.051L229.644 363.544L228.771 364.854L226.151 364.417L224.841 362.671L222.659 362.234L220.476 364.417L217.856 367.037L216.11 368.783H213.927L212.617 367.91L210.434 366.6H207.378L202.576 366.163L200.393 364.854L196.463 364.417L192.098 363.98L187.295 364.417L184.676 368.783H181.62L178.563 369.22V372.276L176.38 374.895V380.134L173.761 383.627L172.015 384.5C171.724 385.082 171.141 386.334 171.141 386.683C171.141 387.032 169.395 387.702 168.522 387.993L163.72 388.866L160.227 391.049L159.354 395.851L157.171 398.034L154.551 398.907L151.059 399.344V397.598L148.439 396.288L144.946 397.161L141.454 394.978H139.271L138.834 393.232L137.524 391.485L137.961 388.866L137.524 384.937L136.651 380.134H132.722H128.793L127.046 379.261L125.737 376.641L121.807 374.022L117.878 372.276L116.568 368.346H114.822L112.202 366.163H110.893H108.71H104.78L103.471 363.98L99.1049 362.671L94.3024 361.798L93.4293 359.615V356.559L90.8098 357.868L88.6268 356.995C87.4626 357.286 85.0468 357.868 84.6976 357.868C84.3483 357.868 83.0967 359.033 82.5146 359.615L77.7122 359.178H73.3463L68.5439 362.234L66.361 366.163L64.6146 367.473L61.9951 367.91L58.939 369.22H55.8829L55.0098 367.91L55.4463 355.863L55.0098 353.939V351.32L55.4463 348.7L57.1927 347.827L57.6293 346.08L56.3195 345.207L55.0098 344.771L53.7 342.588L52.3902 340.405H51.0805L49.7707 342.588L48.461 341.278L48.0244 339.968V337.785L49.3341 336.039L51.9537 337.349L52.8268 335.602L53.2634 331.673H51.5171L49.7707 331.237H47.1512L46.278 329.49L45.8415 324.688V322.505L47.1512 320.322L47.5878 316.829V314.21L46.7146 312.463L44.9683 311.154V307.661L44.5317 304.168L44.0951 301.985L46.278 299.366L47.5878 296.746L47.1512 293.254L46.7146 291.507L44.5317 291.071L41.9122 290.634L40.6024 288.888L38.8561 286.705L37.5463 286.268L34.9268 285.395V281.466L33.1805 277.537L30.561 269.678L27.0683 269.241L26.1951 267.495L27.5049 265.749L29.2512 265.312H31.4341L34.4902 267.495L36.6732 267.932L37.5463 266.622L36.9329 264.876L35.3634 263.566V261.82L37.9829 259.637L41.039 257.017L47.5878 256.58L51.9537 257.89L57.1927 258.763L61.5585 257.017L64.178 257.454L63.7415 259.2L60.6854 260.51L58.0659 261.383L56.7561 264.876L55.4463 267.059L56.3195 269.241L58.0659 268.805C58.0659 267.932 58.1202 266.098 58.3374 265.749C58.5546 265.4 59.7022 263.566 60.2488 262.693L62.8683 261.383L65.0512 260.51H67.2341L68.5439 259.637L68.1073 257.454C67.6707 256.872 66.8849 255.669 67.2341 255.514C67.5834 255.36 67.3797 254.123 67.2341 253.524L65.4878 252.651L64.178 254.398L61.122 254.834L58.3374 256.144H55.4463L53.2634 254.398L52.8268 253.088L54.5732 250.905L56.3195 249.159L56.7561 245.229V242.173L57.6293 239.117L56.7561 236.934L54.1366 235.188L51.0805 236.061L48.461 236.498L45.8415 235.624L41.039 232.132H37.5463L33.6171 232.568L29.2512 235.624L24.8854 236.934L21.3927 237.371L19.2098 239.117L17.4634 238.68L13.5341 237.371L13.0976 233.878L14.4073 233.005L17.4634 233.878L18.7732 233.005L14.4073 223.4L12.661 219.907L9.16829 219.471H5.67561C5.0935 219.034 3.92927 218.074 3.92927 217.724V213.795L2.18293 211.176L0 209.866L0.873171 206.81L3.0561 203.317L6.1122 200.261L4.80244 197.641L4.36585 195.459L5.67561 191.966L6.54878 189.783L7.85854 188.037L10.0415 187.163L11.3512 182.798L12.661 181.488L15.2805 183.671L18.3366 189.783L20.5195 191.529L22.7024 191.093L23.5756 188.91V186.727L22.7024 184.544V182.361L23.139 180.178L24.0122 181.051L25.7585 180.615L27.9415 179.741L28.8146 178.432L30.561 176.249H31.8707L35.8 174.939L37.9829 173.629L40.6024 171.01L43.6585 168.39L46.7146 169.263L48.0244 171.883H50.6439L51.9537 171.01L55.4463 169.263L57.1927 170.137L58.5024 173.193H65.9244L67.2341 175.812L71.1634 180.178L72.9098 181.924L72.4732 184.107L72.9098 187.6L73.7829 188.473L74.6561 187.163L75.0927 185.417L74.6561 183.671L75.5293 181.488L77.2756 182.798L79.4585 184.544L80.7683 185.854L82.9512 187.6L84.261 186.727L85.5707 184.98L86.8805 184.107L89.5 181.051H92.9927H96.922L97.7951 182.798L99.5415 183.671V181.051L101.724 180.178L105.217 180.615L108.71 181.051L110.02 182.798L110.893 184.98L112.202 186.29L115.695 188.037H118.751L119.624 185.417L121.371 184.544L122.244 184.98L124.427 186.727L127.046 187.6L129.666 185.854L131.849 184.544V180.615L130.976 177.559H129.229L126.173 176.249L124.427 173.629L123.554 171.883L120.498 171.446L119.624 169.7L120.934 168.39L123.117 167.517L127.046 165.334L128.356 163.588L127.483 162.715L126.173 162.278C126.028 161.55 125.737 160.008 125.737 159.659C125.737 159.309 126.61 157.767 127.046 157.039L128.793 155.293H130.539L135.341 155.729L137.961 155.293L136.651 153.983L134.468 153.11L130.539 152.237L129.666 150.49L129.229 149.18L127.483 148.744L126.61 146.561L127.92 146.124L129.229 144.378L127.483 143.941V142.195L130.102 140.449H138.398L147.129 138.266L153.241 136.52L160.663 132.59L163.72 130.844L168.085 129.098L171.578 128.661L175.071 126.915L175.507 125.168L177.254 124.732L179 126.478H181.183L182.056 124.732L182.493 121.239L185.549 119.056L187.732 117.31L191.224 116.873L195.59 117.746L197.337 118.62L199.083 118.183L199.956 116.437L202.576 116L204.759 119.493L206.505 122.549L208.251 125.605L209.124 129.971L210.871 130.407L212.617 128.661L213.49 126.915L214.8 126.478L215.673 127.351L218.293 129.098H222.659L224.405 130.407H225.715L226.151 129.098L228.334 128.661L229.207 129.971L228.334 131.717H226.588V135.21H228.334L231.827 134.337L237.939 130.407L240.559 127.788L242.305 125.168L245.361 122.549L247.544 119.493L251.037 117.746L251.91 118.62Z" fill="#F5CF91"/>
<path d="M291.5 278C291.5 278.276 291.724 278.5 292 278.5C292.276 278.5 292.5 278.276 292.5 278H291.5ZM292.5 275.136C292.5 274.86 292.276 274.636 292 274.636C291.724 274.636 291.5 274.86 291.5 275.136H292.5ZM291.5 265.591C291.5 265.867 291.724 266.091 292 266.091C292.276 266.091 292.5 265.867 292.5 265.591H291.5ZM292.5 259.864C292.5 259.587 292.276 259.364 292 259.364C291.724 259.364 291.5 259.587 291.5 259.864H292.5ZM291.5 250.318C291.5 250.594 291.724 250.818 292 250.818C292.276 250.818 292.5 250.594 292.5 250.318H291.5ZM292.5 244.591C292.5 244.315 292.276 244.091 292 244.091C291.724 244.091 291.5 244.315 291.5 244.591H292.5ZM291.5 235.045C291.5 235.322 291.724 235.545 292 235.545C292.276 235.545 292.5 235.322 292.5 235.045H291.5ZM292.5 229.318C292.5 229.042 292.276 228.818 292 228.818C291.724 228.818 291.5 229.042 291.5 229.318H292.5ZM291.5 219.773C291.5 220.049 291.724 220.273 292 220.273C292.276 220.273 292.5 220.049 292.5 219.773H291.5ZM292.5 214.045C292.5 213.769 292.276 213.545 292 213.545C291.724 213.545 291.5 213.769 291.5 214.045H292.5ZM291.5 204.5C291.5 204.776 291.724 205 292 205C292.276 205 292.5 204.776 292.5 204.5H291.5ZM292.5 198.773C292.5 198.497 292.276 198.273 292 198.273C291.724 198.273 291.5 198.497 291.5 198.773H292.5ZM291.5 189.227C291.5 189.503 291.724 189.727 292 189.727C292.276 189.727 292.5 189.503 292.5 189.227H291.5ZM292.5 183.5C292.5 183.224 292.276 183 292 183C291.724 183 291.5 183.224 291.5 183.5H292.5ZM291.5 173.955C291.5 174.231 291.724 174.455 292 174.455C292.276 174.455 292.5 174.231 292.5 173.955H291.5ZM292.5 168.227C292.5 167.951 292.276 167.727 292 167.727C291.724 167.727 291.5 167.951 291.5 168.227H292.5ZM291.5 158.682C291.5 158.958 291.724 159.182 292 159.182C292.276 159.182 292.5 158.958 292.5 158.682H291.5ZM292.5 152.955C292.5 152.678 292.276 152.455 292 152.455C291.724 152.455 291.5 152.678 291.5 152.955H292.5ZM291.5 143.409C291.5 143.685 291.724 143.909 292 143.909C292.276 143.909 292.5 143.685 292.5 143.409H291.5ZM292.5 137.682C292.5 137.406 292.276 137.182 292 137.182C291.724 137.182 291.5 137.406 291.5 137.682H292.5ZM291.5 128.136C291.5 128.413 291.724 128.636 292 128.636C292.276 128.636 292.5 128.413 292.5 128.136H291.5ZM292.5 122.409C292.5 122.133 292.276 121.909 292 121.909C291.724 121.909 291.5 122.133 291.5 122.409H292.5ZM291.5 112.864C291.5 113.14 291.724 113.364 292 113.364C292.276 113.364 292.5 113.14 292.5 112.864H291.5ZM292.5 278V275.136H291.5V278H292.5ZM292.5 265.591V259.864H291.5V265.591H292.5ZM292.5 250.318V244.591H291.5V250.318H292.5ZM292.5 235.045V229.318H291.5V235.045H292.5ZM292.5 219.773V214.045H291.5V219.773H292.5ZM292.5 204.5V198.773H291.5V204.5H292.5ZM292.5 189.227V183.5H291.5V189.227H292.5ZM292.5 173.955V168.227H291.5V173.955H292.5ZM292.5 158.682V152.955H291.5V158.682H292.5ZM292.5 143.409V137.682H291.5V143.409H292.5ZM292.5 128.136V122.409H291.5V128.136H292.5ZM292.5 112.864V110H291.5V112.864H292.5Z" fill="#4A4C4B"/>
<path d="M171.5 210C171.5 210.276 171.724 210.5 172 210.5C172.276 210.5 172.5 210.276 172.5 210H171.5ZM172.5 206.836C172.5 206.56 172.276 206.336 172 206.336C171.724 206.336 171.5 206.56 171.5 206.836H172.5ZM171.5 196.289C171.5 196.565 171.724 196.789 172 196.789C172.276 196.789 172.5 196.565 172.5 196.289H171.5ZM172.5 189.961C172.5 189.685 172.276 189.461 172 189.461C171.724 189.461 171.5 189.685 171.5 189.961H172.5ZM171.5 179.414C171.5 179.69 171.724 179.914 172 179.914C172.276 179.914 172.5 179.69 172.5 179.414H171.5ZM172.5 173.086C172.5 172.81 172.276 172.586 172 172.586C171.724 172.586 171.5 172.81 171.5 173.086H172.5ZM171.5 162.539C171.5 162.815 171.724 163.039 172 163.039C172.276 163.039 172.5 162.815 172.5 162.539H171.5ZM172.5 156.211C172.5 155.935 172.276 155.711 172 155.711C171.724 155.711 171.5 155.935 171.5 156.211H172.5ZM171.5 145.664C171.5 145.94 171.724 146.164 172 146.164C172.276 146.164 172.5 145.94 172.5 145.664H171.5ZM172.5 139.336C172.5 139.06 172.276 138.836 172 138.836C171.724 138.836 171.5 139.06 171.5 139.336H172.5ZM171.5 128.789C171.5 129.065 171.724 129.289 172 129.289C172.276 129.289 172.5 129.065 172.5 128.789H171.5ZM172.5 122.461C172.5 122.185 172.276 121.961 172 121.961C171.724 121.961 171.5 122.185 171.5 122.461H172.5ZM171.5 111.914C171.5 112.19 171.724 112.414 172 112.414C172.276 112.414 172.5 112.19 172.5 111.914H171.5ZM172.5 105.586C172.5 105.31 172.276 105.086 172 105.086C171.724 105.086 171.5 105.31 171.5 105.586H172.5ZM171.5 95.0391C171.5 95.3152 171.724 95.5391 172 95.5391C172.276 95.5391 172.5 95.3152 172.5 95.0391H171.5ZM172.5 88.7109C172.5 88.4348 172.276 88.2109 172 88.2109C171.724 88.2109 171.5 88.4348 171.5 88.7109H172.5ZM171.5 78.1641C171.5 78.4402 171.724 78.6641 172 78.6641C172.276 78.6641 172.5 78.4402 172.5 78.1641H171.5ZM172.5 210V206.836H171.5V210H172.5ZM172.5 196.289V189.961H171.5V196.289H172.5ZM172.5 179.414V173.086H171.5V179.414H172.5ZM172.5 162.539V156.211H171.5V162.539H172.5ZM172.5 145.664V139.336H171.5V145.664H172.5ZM172.5 128.789V122.461H171.5V128.789H172.5ZM172.5 111.914V105.586H171.5V111.914H172.5ZM172.5 95.0391V88.7109H171.5V95.0391H172.5ZM172.5 78.1641V75H171.5V78.1641H172.5Z" fill="#4A4C4B"/>
<path d="M301 338V337.5H301.5V338H301ZM270 338.5C269.724 338.5 269.5 338.276 269.5 338C269.5 337.724 269.724 337.5 270 337.5V338.5ZM272.906 337.5C273.182 337.5 273.406 337.724 273.406 338C273.406 338.276 273.182 338.5 272.906 338.5V337.5ZM282.594 338.5C282.318 338.5 282.094 338.276 282.094 338C282.094 337.724 282.318 337.5 282.594 337.5V338.5ZM288.406 337.5C288.682 337.5 288.906 337.724 288.906 338C288.906 338.276 288.682 338.5 288.406 338.5V337.5ZM298.094 338.5C297.818 338.5 297.594 338.276 297.594 338C297.594 337.724 297.818 337.5 298.094 337.5V338.5ZM301.5 341.125C301.5 341.401 301.276 341.625 301 341.625C300.724 341.625 300.5 341.401 300.5 341.125H301.5ZM300.5 351.542C300.5 351.266 300.724 351.042 301 351.042C301.276 351.042 301.5 351.266 301.5 351.542H300.5ZM301.5 357.792C301.5 358.068 301.276 358.292 301 358.292C300.724 358.292 300.5 358.068 300.5 357.792H301.5ZM300.5 368.208C300.5 367.932 300.724 367.708 301 367.708C301.276 367.708 301.5 367.932 301.5 368.208H300.5ZM301.5 374.458C301.5 374.734 301.276 374.958 301 374.958C300.724 374.958 300.5 374.734 300.5 374.458H301.5ZM300.5 384.875C300.5 384.599 300.724 384.375 301 384.375C301.276 384.375 301.5 384.599 301.5 384.875H300.5ZM270 337.5H272.906V338.5H270V337.5ZM282.594 337.5H288.406V338.5H282.594V337.5ZM298.094 337.5H301V338.5H298.094V337.5ZM301.5 338V341.125H300.5V338H301.5ZM301.5 351.542V357.792H300.5V351.542H301.5ZM301.5 368.208V374.458H300.5V368.208H301.5ZM301.5 384.875V388H300.5V384.875H301.5Z" fill="#4A4C4B"/>
<path d="M59 338V338.5H58.5V338H59ZM77 337.5C77.2761 337.5 77.5 337.724 77.5 338C77.5 338.276 77.2761 338.5 77 338.5V337.5ZM73.625 338.5C73.3489 338.5 73.125 338.276 73.125 338C73.125 337.724 73.3489 337.5 73.625 337.5V338.5ZM62.375 337.5C62.6511 337.5 62.875 337.724 62.875 338C62.875 338.276 62.6511 338.5 62.375 338.5V337.5ZM58.5 334.881C58.5 334.605 58.7239 334.381 59 334.381C59.2761 334.381 59.5 334.605 59.5 334.881H58.5ZM59.5 324.483C59.5 324.759 59.2761 324.983 59 324.983C58.7239 324.983 58.5 324.759 58.5 324.483H59.5ZM58.5 318.244C58.5 317.968 58.7239 317.744 59 317.744C59.2761 317.744 59.5 317.968 59.5 318.244H58.5ZM59.5 307.847C59.5 308.123 59.2761 308.347 59 308.347C58.7239 308.347 58.5 308.123 58.5 307.847H59.5ZM58.5 301.608C58.5 301.332 58.7239 301.108 59 301.108C59.2761 301.108 59.5 301.332 59.5 301.608H58.5ZM59.5 291.21C59.5 291.486 59.2761 291.71 59 291.71C58.7239 291.71 58.5 291.486 58.5 291.21H59.5ZM58.5 284.972C58.5 284.695 58.7239 284.472 59 284.472C59.2761 284.472 59.5 284.695 59.5 284.972H58.5ZM59.5 274.574C59.5 274.85 59.2761 275.074 59 275.074C58.7239 275.074 58.5 274.85 58.5 274.574H59.5ZM58.5 268.335C58.5 268.059 58.7239 267.835 59 267.835C59.2761 267.835 59.5 268.059 59.5 268.335H58.5ZM59.5 257.938C59.5 258.214 59.2761 258.438 59 258.438C58.7239 258.438 58.5 258.214 58.5 257.938H59.5ZM58.5 251.699C58.5 251.423 58.7239 251.199 59 251.199C59.2761 251.199 59.5 251.423 59.5 251.699H58.5ZM59.5 241.301C59.5 241.577 59.2761 241.801 59 241.801C58.7239 241.801 58.5 241.577 58.5 241.301H59.5ZM58.5 235.062C58.5 234.786 58.7239 234.562 59 234.562C59.2761 234.562 59.5 234.786 59.5 235.062H58.5ZM59.5 224.665C59.5 224.941 59.2761 225.165 59 225.165C58.7239 225.165 58.5 224.941 58.5 224.665H59.5ZM58.5 218.426C58.5 218.15 58.7239 217.926 59 217.926C59.2761 217.926 59.5 218.15 59.5 218.426H58.5ZM59.5 208.028C59.5 208.305 59.2761 208.528 59 208.528C58.7239 208.528 58.5 208.305 58.5 208.028H59.5ZM58.5 201.79C58.5 201.514 58.7239 201.29 59 201.29C59.2761 201.29 59.5 201.514 59.5 201.79H58.5ZM59.5 191.392C59.5 191.668 59.2761 191.892 59 191.892C58.7239 191.892 58.5 191.668 58.5 191.392H59.5ZM58.5 185.153C58.5 184.877 58.7239 184.653 59 184.653C59.2761 184.653 59.5 184.877 59.5 185.153H58.5ZM59.5 174.756C59.5 175.032 59.2761 175.256 59 175.256C58.7239 175.256 58.5 175.032 58.5 174.756H59.5ZM58.5 168.517C58.5 168.241 58.7239 168.017 59 168.017C59.2761 168.017 59.5 168.241 59.5 168.517H58.5ZM59.5 158.119C59.5 158.395 59.2761 158.619 59 158.619C58.7239 158.619 58.5 158.395 58.5 158.119H59.5ZM77 338.5H73.625V337.5H77V338.5ZM62.375 338.5H59V337.5H62.375V338.5ZM58.5 338V334.881H59.5V338H58.5ZM58.5 324.483V318.244H59.5V324.483H58.5ZM58.5 307.847V301.608H59.5V307.847H58.5ZM58.5 291.21V284.972H59.5V291.21H58.5ZM58.5 274.574V268.335H59.5V274.574H58.5ZM58.5 257.938V251.699H59.5V257.938H58.5ZM58.5 241.301V235.062H59.5V241.301H58.5ZM58.5 224.665V218.426H59.5V224.665H58.5ZM58.5 208.028V201.79H59.5V208.028H58.5ZM58.5 191.392L58.5 185.153H59.5L59.5 191.392H58.5ZM58.5 174.756L58.5 168.517H59.5L59.5 174.756H58.5ZM58.5 158.119V155H59.5V158.119H58.5Z" fill="#4A4C4B"/>
<rect y="85" width="100" height="70" rx="8" fill="#D9D9D9"/>
<path d="M154.5 430.5C154.5 430.776 154.276 431 154 431C153.724 431 153.5 430.776 153.5 430.5H154.5ZM153.5 427.582C153.5 427.306 153.724 427.082 154 427.082C154.276 427.082 154.5 427.306 154.5 427.582H153.5ZM154.5 417.855C154.5 418.132 154.276 418.355 154 418.355C153.724 418.355 153.5 418.132 153.5 417.855H154.5ZM153.5 412.02C153.5 411.743 153.724 411.52 154 411.52C154.276 411.52 154.5 411.743 154.5 412.02H153.5ZM154.5 402.293C154.5 402.569 154.276 402.793 154 402.793C153.724 402.793 153.5 402.569 153.5 402.293H154.5ZM153.5 396.457C153.5 396.181 153.724 395.957 154 395.957C154.276 395.957 154.5 396.181 154.5 396.457H153.5ZM154.5 386.73C154.5 387.007 154.276 387.23 154 387.23C153.724 387.23 153.5 387.007 153.5 386.73H154.5ZM153.5 380.895C153.5 380.618 153.724 380.395 154 380.395C154.276 380.395 154.5 380.618 154.5 380.895H153.5ZM154.5 371.168C154.5 371.444 154.276 371.668 154 371.668C153.724 371.668 153.5 371.444 153.5 371.168H154.5ZM153.5 365.332C153.5 365.056 153.724 364.832 154 364.832C154.276 364.832 154.5 365.056 154.5 365.332H153.5ZM154.5 355.605C154.5 355.882 154.276 356.105 154 356.105C153.724 356.105 153.5 355.882 153.5 355.605H154.5ZM153.5 349.77C153.5 349.493 153.724 349.27 154 349.27C154.276 349.27 154.5 349.493 154.5 349.77H153.5ZM154.5 340.043C154.5 340.319 154.276 340.543 154 340.543C153.724 340.543 153.5 340.319 153.5 340.043H154.5ZM153.5 334.207C153.5 333.931 153.724 333.707 154 333.707C154.276 333.707 154.5 333.931 154.5 334.207H153.5ZM154.5 324.48C154.5 324.757 154.276 324.98 154 324.98C153.724 324.98 153.5 324.757 153.5 324.48H154.5ZM153.5 318.645C153.5 318.368 153.724 318.145 154 318.145C154.276 318.145 154.5 318.368 154.5 318.645H153.5ZM154.5 308.918C154.5 309.194 154.276 309.418 154 309.418C153.724 309.418 153.5 309.194 153.5 308.918H154.5ZM153.5 430.5V427.582H154.5V430.5H153.5ZM153.5 417.855V412.02H154.5V417.855H153.5ZM153.5 402.293V396.457H154.5V402.293H153.5ZM153.5 386.73V380.895H154.5V386.73H153.5ZM153.5 371.168L153.5 365.332H154.5L154.5 371.168H153.5ZM153.5 355.605V349.77H154.5V355.605H153.5ZM153.5 340.043V334.207H154.5V340.043H153.5ZM153.5 324.48V318.645H154.5V324.48H153.5ZM153.5 308.918V306H154.5V308.918H153.5Z" fill="#4A4C4B"/>
<path d="M44.5312 305.478L48.4605 302.859L54.1361 300.239L59.3752 298.929L63.3044 299.366L67.2337 301.549L70.2898 306.351L72.9093 310.281L75.0922 313.337L77.7117 315.083L80.3313 315.52M80.3313 315.52V311.154L83.3873 265.749L91.2459 261.82L96.9215 260.51L103.47 258.763L106.526 257.454H109.582L112.639 259.637L117.004 263.129L123.553 267.059L130.975 272.734L133.595 276.227L138.834 281.029L141.453 284.085H144.946L154.551 282.776L165.029 282.339L168.521 281.029L171.141 280.156L174.197 281.902L176.817 284.522L179.873 288.015L182.929 290.198L184.239 291.944V300.676L185.548 302.859H187.731L189.478 303.732C189.769 304.023 190.351 304.692 190.351 305.042C190.351 305.391 190.933 307.224 191.224 308.098L192.97 312.027L195.59 313.337L199.956 312.9L203.885 311.59H206.068L207.378 312.027L208.687 318.139H212.18L213.49 313.337L220.039 303.732L228.77 295.873L233.573 291.944L235.756 287.578M80.3313 315.52L92.1191 315.083V310.281L93.8654 305.042L99.541 302.859L103.034 299.802H104.78L104.343 297.183L106.963 295.873L107.836 294.563L109.146 295.437L110.456 297.183L111.765 298.493H114.385L116.131 301.549L121.807 301.985L123.99 306.788V310.281V313.773L129.665 316.393L137.087 315.083H140.58L144.509 322.068L146.692 325.561L149.748 328.617V332.11L152.368 334.729L155.861 336.912L166.339 344.771L170.704 345.644L179 351.756L188.168 353.502L193.843 355.685H198.209V359.615V363.107L200.829 364.854L203.012 366.163L209.561 366.6L212.617 367.91L211.307 365.727L210.87 363.107L211.743 360.488L214.8 356.559L216.546 354.376L215.673 352.193L213.926 350.446L212.18 348.263V341.715H210.434L207.814 341.278L206.068 339.532L203.448 339.095V336.912L204.321 334.293L207.378 333.42H212.18L214.363 332.983L215.673 330.8L216.546 328.617L216.982 326.434L216.109 325.124L215.673 323.378L217.419 322.942L220.039 322.505L220.475 320.322L220.039 317.702L221.348 314.21H223.095L223.968 315.52L226.151 315.083L228.334 313.337L229.643 312.027L230.953 309.844L232.263 309.407L233.573 311.154L235.319 312.027L235.756 314.21L233.573 315.956L231.826 316.829L232.7 318.576L234.882 319.449L237.065 321.632M235.756 287.578L237.939 283.649L241.868 281.902L248.853 282.339L256.275 283.649L258.021 284.085L259.331 283.649V281.466V275.79L261.951 273.607L267.626 272.734L271.119 273.607L278.104 274.044L284.653 271.861L290.329 269.678L297.751 268.368L305.609 266.185L313.468 265.749L316.961 268.368L323.073 268.805L325.692 270.115M235.756 287.578L236.629 290.634L237.939 291.944L236.629 293.69L234.009 296.31L231.826 298.493L229.643 300.239L228.77 301.985L229.643 303.732L231.826 303.295L233.136 302.422L234.446 303.295L235.756 305.478L239.248 305.915L240.995 305.042L241.431 302.859L242.741 302.422L241.431 299.366H243.614L245.361 301.549L246.67 303.295L247.98 304.605H249.726L252.782 305.915L254.529 306.351L257.148 306.788L260.641 306.351L261.514 307.224L257.585 310.717L247.98 318.576H242.304L238.812 319.885L237.065 321.632M237.065 321.632L235.756 323.378H232.263L230.08 321.632H227.024L224.841 324.251L222.658 326.434V329.054L224.404 331.237L228.334 330.363H232.7L235.756 327.744L237.065 328.181L238.812 329.49L239.685 330.363L241.868 329.49L244.051 326.871L245.797 325.998L247.543 326.871L249.29 329.054L250.6 329.927L253.219 329.49H254.529L257.148 329.054L258.895 327.744L261.514 326.871L264.57 326.434L267.626 324.688L269.373 324.251" stroke="#C6A26A" stroke-width="0.873171"/>
<path d="M157.443 223.922H156.306L153.991 220.742L153.44 221.402V223.922H152.56V216.587H153.44V220.035L156.327 216.587H157.475L154.567 220.05L157.443 223.922ZM160.686 216.587H161.75L164.416 223.922H163.484L162.939 222.424H159.497L158.957 223.922H158.02L160.686 216.587ZM159.822 221.543H162.614L161.215 217.714L159.822 221.543ZM165.1 223.922V223.042L169.852 217.468H165.1V216.587H171.031V217.468L166.279 223.042H171.031V223.922H165.1ZM174.377 216.587H175.441L178.107 223.922H177.175L176.63 222.424H173.188L172.648 223.922H171.711L174.377 216.587ZM173.513 221.543H176.305L174.906 217.714L173.513 221.543ZM183.945 223.922H182.808L180.493 220.742L179.943 221.402V223.922H179.062V216.587H179.943V220.035L182.829 216.587H183.977L181.069 220.05L183.945 223.922ZM189.375 216.587H190.255V223.922H189.375V220.433H185.744V223.922H184.864V216.587H185.744V219.553H189.375V216.587ZM194.098 224.058C193.703 224.058 193.323 223.997 192.956 223.875C192.589 223.749 192.268 223.571 191.992 223.34C191.72 223.11 191.526 222.836 191.411 222.518L192.233 222.209C192.303 222.404 192.432 222.576 192.621 222.722C192.813 222.865 193.038 222.977 193.297 223.058C193.555 223.138 193.822 223.178 194.098 223.178C194.413 223.178 194.704 223.127 194.973 223.026C195.246 222.921 195.466 222.776 195.633 222.591C195.801 222.406 195.885 222.19 195.885 221.942C195.885 221.687 195.797 221.479 195.623 221.318C195.448 221.154 195.225 221.025 194.952 220.931C194.68 220.833 194.395 220.758 194.098 220.705C193.592 220.621 193.138 220.503 192.736 220.349C192.338 220.192 192.022 219.974 191.788 219.694C191.557 219.415 191.442 219.046 191.442 218.589C191.442 218.163 191.564 217.791 191.809 217.473C192.057 217.155 192.383 216.909 192.788 216.734C193.194 216.559 193.63 216.472 194.098 216.472C194.486 216.472 194.861 216.533 195.225 216.655C195.591 216.774 195.914 216.949 196.194 217.179C196.473 217.41 196.674 217.691 196.796 218.023L195.963 218.327C195.893 218.128 195.762 217.956 195.57 217.813C195.382 217.667 195.158 217.555 194.9 217.478C194.645 217.398 194.378 217.357 194.098 217.357C193.787 217.354 193.497 217.405 193.228 217.509C192.96 217.614 192.741 217.759 192.574 217.944C192.406 218.129 192.322 218.344 192.322 218.589C192.322 218.882 192.399 219.107 192.553 219.265C192.71 219.418 192.923 219.533 193.192 219.61C193.461 219.687 193.763 219.755 194.098 219.815C194.573 219.895 195.013 220.022 195.418 220.197C195.824 220.368 196.148 220.597 196.393 220.883C196.641 221.17 196.765 221.523 196.765 221.942C196.765 222.368 196.641 222.74 196.393 223.058C196.148 223.375 195.824 223.622 195.418 223.796C195.013 223.971 194.573 224.058 194.098 224.058ZM203.234 216.587V217.468H200.792V223.922H199.912V217.468H197.476V216.587H203.234ZM205.811 216.587H206.875L209.542 223.922H208.609L208.064 222.424H204.622L204.083 223.922H203.145L205.811 216.587ZM204.947 221.543H207.739L206.341 217.714L204.947 221.543ZM210.497 223.922V216.587H211.45L215.112 222.329V216.587H215.992V223.922H215.044L211.377 218.18V223.922H210.497Z" fill="#3A2500"/>
<path d="M246.462 292.776H245.515L243.585 290.126L243.127 290.676V292.776H242.393V286.663H243.127V289.536L245.532 286.663H246.488L244.065 289.549L246.462 292.776ZM250.923 286.663H251.787L249.718 290.012V292.776H248.984V290.012L246.915 286.663H247.779L249.351 289.209L250.923 286.663ZM252.583 292.776V286.663H254.731C255.057 286.663 255.351 286.744 255.613 286.904C255.878 287.064 256.087 287.281 256.241 287.554C256.399 287.825 256.477 288.127 256.477 288.462C256.477 288.756 256.419 289.024 256.303 289.266C256.186 289.507 256.026 289.709 255.822 289.872C255.622 290.032 255.393 290.143 255.137 290.204L256.621 292.776H255.774L254.316 290.265H253.316V292.776H252.583ZM253.316 289.532H254.657C254.855 289.532 255.036 289.484 255.202 289.388C255.368 289.289 255.499 289.156 255.595 288.99C255.694 288.822 255.744 288.632 255.744 288.423C255.744 288.21 255.694 288.021 255.595 287.855C255.499 287.687 255.368 287.554 255.202 287.458C255.036 287.359 254.855 287.31 254.657 287.31H253.316V289.532ZM260.234 292.889C259.812 292.889 259.418 292.808 259.051 292.645C258.687 292.479 258.368 292.25 258.095 291.959C257.824 291.665 257.612 291.328 257.457 290.946C257.303 290.562 257.226 290.152 257.226 289.715C257.226 289.264 257.306 288.846 257.466 288.462C257.629 288.078 257.85 287.743 258.13 287.458C258.412 287.173 258.734 286.952 259.095 286.794C259.458 286.634 259.843 286.554 260.247 286.554C260.707 286.554 261.145 286.662 261.561 286.877C261.978 287.093 262.336 287.404 262.635 287.812L261.98 288.165C261.756 287.88 261.49 287.662 261.181 287.51C260.876 287.359 260.562 287.283 260.238 287.283C259.93 287.283 259.637 287.346 259.361 287.471C259.087 287.596 258.844 287.771 258.632 287.995C258.422 288.219 258.258 288.478 258.138 288.772C258.019 289.066 257.959 289.385 257.959 289.728C257.959 290.063 258.019 290.377 258.138 290.671C258.258 290.965 258.421 291.224 258.627 291.448C258.837 291.67 259.08 291.843 259.357 291.968C259.633 292.093 259.928 292.156 260.243 292.156C260.493 292.156 260.73 292.114 260.954 292.029C261.181 291.945 261.39 291.825 261.579 291.671C261.771 291.517 261.934 291.335 262.068 291.125C262.205 290.916 262.308 290.686 262.378 290.436H260.872V289.781H263.233C263.231 290.209 263.149 290.61 262.989 290.986C262.832 291.361 262.615 291.691 262.338 291.977C262.065 292.262 261.748 292.486 261.387 292.649C261.029 292.809 260.644 292.889 260.234 292.889ZM267.465 286.663H268.33L266.26 290.012V292.776H265.527V290.012L263.457 286.663H264.322L265.893 289.209L267.465 286.663ZM268.942 292.776V292.042L272.902 287.397H268.942V286.663H273.884V287.397L269.925 292.042H273.884V292.776H268.942ZM276.906 292.889C276.577 292.889 276.259 292.838 275.954 292.736C275.648 292.632 275.38 292.483 275.151 292.291C274.923 292.099 274.762 291.87 274.666 291.606L275.351 291.348C275.41 291.511 275.517 291.654 275.674 291.776C275.835 291.895 276.022 291.988 276.238 292.055C276.453 292.122 276.676 292.156 276.906 292.156C277.168 292.156 277.411 292.114 277.635 292.029C277.862 291.942 278.045 291.821 278.185 291.667C278.324 291.512 278.394 291.332 278.394 291.125C278.394 290.913 278.322 290.74 278.176 290.606C278.031 290.469 277.844 290.361 277.617 290.283C277.39 290.201 277.153 290.139 276.906 290.095C276.484 290.025 276.105 289.926 275.77 289.798C275.439 289.667 275.175 289.485 274.98 289.252C274.788 289.02 274.692 288.713 274.692 288.331C274.692 287.976 274.794 287.666 274.998 287.401C275.204 287.136 275.477 286.931 275.814 286.786C276.152 286.64 276.516 286.567 276.906 286.567C277.229 286.567 277.542 286.618 277.844 286.72C278.15 286.819 278.419 286.965 278.652 287.157C278.885 287.349 279.052 287.583 279.154 287.86L278.46 288.113C278.402 287.947 278.292 287.804 278.132 287.685C277.975 287.563 277.789 287.47 277.574 287.406C277.361 287.339 277.138 287.305 276.906 287.305C276.647 287.302 276.405 287.345 276.181 287.432C275.957 287.519 275.775 287.64 275.635 287.794C275.495 287.948 275.426 288.127 275.426 288.331C275.426 288.576 275.49 288.763 275.618 288.894C275.749 289.022 275.926 289.119 276.15 289.183C276.374 289.247 276.626 289.303 276.906 289.353C277.301 289.42 277.668 289.526 278.006 289.672C278.343 289.814 278.614 290.005 278.818 290.243C279.024 290.482 279.128 290.776 279.128 291.125C279.128 291.48 279.024 291.79 278.818 292.055C278.614 292.32 278.343 292.525 278.006 292.671C277.668 292.816 277.301 292.889 276.906 292.889ZM284.518 286.663V287.397H282.484V292.776H281.751V287.397H279.72V286.663H284.518ZM286.667 286.663H287.553L289.775 292.776H288.998L288.544 291.527H285.676L285.226 292.776H284.444L286.667 286.663ZM285.946 290.794H288.273L287.108 287.602L285.946 290.794ZM290.571 292.776V286.663H291.366L294.417 291.448V286.663H295.151V292.776H294.36L291.304 287.991V292.776H290.571Z" fill="#3A2500"/>
<path d="M226.932 333.815V334.548H224.898V339.927H224.165V334.548H222.134V333.815H226.932ZM229.081 333.815H229.967L232.189 339.927H231.412L230.958 338.678H228.09L227.64 339.927H226.858L229.081 333.815ZM228.36 337.945H230.687L229.522 334.753L228.36 337.945ZM233.724 340.04C233.52 340.04 233.321 340.005 233.126 339.936C232.931 339.869 232.753 339.767 232.593 339.63L233.06 339.062C233.145 339.135 233.242 339.195 233.353 339.241C233.466 339.285 233.59 339.307 233.724 339.307C233.916 339.307 234.091 339.256 234.248 339.154C234.405 339.052 234.53 338.918 234.623 338.752C234.719 338.587 234.767 338.409 234.767 338.22V333.815H235.501V338.22C235.501 338.546 235.421 338.847 235.261 339.124C235.1 339.397 234.887 339.618 234.619 339.787C234.351 339.956 234.053 340.04 233.724 340.04ZM236.68 339.927V333.815H237.414V339.927H236.68ZM242.665 339.927H241.717L239.788 337.277L239.329 337.827V339.927H238.596V333.815H239.329V336.687L241.735 333.815H242.691L240.268 336.701L242.665 339.927ZM243.562 339.927V333.815H244.295V339.927H243.562ZM247.629 340.04C247.301 340.04 246.983 339.989 246.678 339.888C246.372 339.783 246.104 339.634 245.874 339.442C245.647 339.25 245.486 339.022 245.39 338.757L246.075 338.499C246.133 338.662 246.241 338.805 246.398 338.927C246.558 339.046 246.746 339.14 246.961 339.207C247.177 339.273 247.4 339.307 247.629 339.307C247.891 339.307 248.134 339.265 248.359 339.18C248.586 339.093 248.769 338.972 248.909 338.818C249.048 338.664 249.118 338.483 249.118 338.277C249.118 338.064 249.045 337.891 248.9 337.757C248.754 337.62 248.568 337.513 248.341 337.434C248.114 337.352 247.877 337.29 247.629 337.246C247.207 337.176 246.829 337.077 246.494 336.949C246.163 336.818 245.899 336.636 245.704 336.404C245.512 336.171 245.416 335.864 245.416 335.482C245.416 335.127 245.518 334.817 245.722 334.553C245.928 334.288 246.2 334.082 246.538 333.937C246.876 333.791 247.239 333.719 247.629 333.719C247.953 333.719 248.265 333.77 248.568 333.871C248.874 333.97 249.143 334.116 249.376 334.308C249.609 334.5 249.776 334.734 249.878 335.011L249.184 335.264C249.125 335.098 249.016 334.956 248.856 334.836C248.699 334.714 248.513 334.621 248.297 334.557C248.085 334.49 247.862 334.456 247.629 334.456C247.37 334.454 247.129 334.496 246.905 334.583C246.681 334.67 246.499 334.791 246.359 334.945C246.219 335.1 246.149 335.279 246.149 335.482C246.149 335.727 246.213 335.915 246.342 336.046C246.472 336.174 246.65 336.27 246.874 336.334C247.098 336.398 247.35 336.455 247.629 336.504C248.025 336.571 248.392 336.677 248.73 336.823C249.067 336.965 249.338 337.156 249.542 337.395C249.748 337.633 249.852 337.927 249.852 338.277C249.852 338.632 249.748 338.942 249.542 339.207C249.338 339.471 249.067 339.677 248.73 339.822C248.392 339.968 248.025 340.04 247.629 340.04ZM255.242 333.815V334.548H253.208V339.927H252.474V334.548H250.444V333.815H255.242ZM257.39 333.815H258.277L260.499 339.927H259.722L259.268 338.678H256.399L255.95 339.927H255.168L257.39 333.815ZM256.67 337.945H258.997L257.831 334.753L256.67 337.945ZM261.295 339.927V333.815H262.089L265.141 338.6V333.815H265.875V339.927H265.084L262.028 335.142V339.927H261.295Z" fill="#3A2500"/>
<path d="M132.145 299.875C131.656 299.875 131.231 299.755 130.87 299.517C130.512 299.278 130.236 298.958 130.041 298.556C129.848 298.151 129.752 297.703 129.752 297.211V293.649H130.486V297.211C130.486 297.561 130.55 297.882 130.678 298.176C130.809 298.47 130.997 298.704 131.241 298.879C131.489 299.054 131.79 299.141 132.145 299.141C132.506 299.141 132.809 299.054 133.053 298.879C133.297 298.702 133.482 298.467 133.607 298.176C133.736 297.882 133.8 297.561 133.8 297.211V293.649H134.533V297.211C134.533 297.581 134.478 297.927 134.367 298.25C134.257 298.571 134.096 298.853 133.887 299.097C133.68 299.342 133.43 299.533 133.136 299.669C132.842 299.806 132.512 299.875 132.145 299.875ZM135.41 299.761V299.028L139.37 294.382H135.41V293.649H140.352V294.382L136.393 299.028H140.352V299.761H135.41ZM141.221 299.761V293.649H143.33C143.633 293.649 143.908 293.711 144.155 293.837C144.405 293.959 144.603 294.138 144.749 294.374C144.894 294.609 144.967 294.892 144.967 295.221C144.967 295.398 144.937 295.57 144.876 295.736C144.817 295.899 144.736 296.04 144.631 296.159C144.529 296.276 144.413 296.354 144.282 296.395C144.465 296.442 144.621 296.524 144.749 296.644C144.877 296.76 144.98 296.897 145.059 297.054C145.14 297.211 145.199 297.376 145.234 297.548C145.268 297.719 145.286 297.885 145.286 298.045C145.286 298.383 145.209 298.681 145.055 298.94C144.903 299.196 144.699 299.397 144.443 299.543C144.187 299.688 143.905 299.761 143.596 299.761H141.221ZM141.955 299.115H143.531C143.732 299.115 143.914 299.064 144.077 298.962C144.242 298.857 144.375 298.715 144.474 298.534C144.573 298.354 144.622 298.15 144.622 297.923C144.622 297.722 144.573 297.533 144.474 297.355C144.375 297.175 144.242 297.029 144.077 296.919C143.914 296.808 143.732 296.753 143.531 296.753H141.955V299.115ZM141.955 296.12H143.26C143.528 296.12 143.756 296.041 143.946 295.884C144.138 295.724 144.234 295.501 144.234 295.216C144.234 294.908 144.138 294.678 143.946 294.526C143.756 294.372 143.528 294.295 143.26 294.295H141.955V296.12ZM146.056 299.761V293.649H149.806V294.382H146.79V296.12H149.261V296.853H146.79V299.028H149.806V299.761H146.056ZM154.883 299.761H153.936L152.006 297.111L151.548 297.661V299.761H150.814V293.649H151.548V296.522L153.953 293.649H154.909L152.486 296.535L154.883 299.761ZM155.78 299.761V293.649H156.514V299.761H155.78ZM159.848 299.875C159.519 299.875 159.202 299.824 158.896 299.722C158.591 299.617 158.323 299.469 158.093 299.276C157.866 299.084 157.704 298.856 157.608 298.591L158.294 298.333C158.352 298.496 158.46 298.639 158.617 298.761C158.777 298.881 158.965 298.974 159.18 299.041C159.395 299.108 159.618 299.141 159.848 299.141C160.11 299.141 160.353 299.099 160.577 299.014C160.804 298.927 160.987 298.806 161.127 298.652C161.267 298.498 161.337 298.317 161.337 298.111C161.337 297.898 161.264 297.725 161.118 297.591C160.973 297.454 160.787 297.347 160.56 297.268C160.333 297.187 160.095 297.124 159.848 297.08C159.426 297.011 159.048 296.912 158.713 296.784C158.381 296.653 158.118 296.471 157.923 296.238C157.731 296.005 157.634 295.698 157.634 295.317C157.634 294.961 157.736 294.652 157.94 294.387C158.147 294.122 158.419 293.917 158.756 293.771C159.094 293.626 159.458 293.553 159.848 293.553C160.171 293.553 160.484 293.604 160.787 293.706C161.092 293.805 161.361 293.95 161.594 294.142C161.827 294.334 161.994 294.569 162.096 294.845L161.402 295.098C161.344 294.932 161.235 294.79 161.075 294.67C160.918 294.548 160.731 294.455 160.516 294.391C160.303 294.324 160.081 294.291 159.848 294.291C159.589 294.288 159.347 294.33 159.123 294.417C158.899 294.505 158.717 294.625 158.577 294.78C158.438 294.934 158.368 295.113 158.368 295.317C158.368 295.561 158.432 295.749 158.56 295.88C158.691 296.008 158.869 296.104 159.093 296.168C159.317 296.232 159.569 296.289 159.848 296.338C160.244 296.405 160.611 296.511 160.948 296.657C161.286 296.8 161.556 296.99 161.76 297.229C161.967 297.467 162.07 297.761 162.07 298.111C162.07 298.466 161.967 298.776 161.76 299.041C161.556 299.306 161.286 299.511 160.948 299.656C160.611 299.802 160.244 299.875 159.848 299.875ZM167.461 293.649V294.382H165.426V299.761H164.693V294.382H162.663V293.649H167.461ZM169.609 293.649H170.495L172.717 299.761H171.94L171.486 298.512H168.618L168.168 299.761H167.387L169.609 293.649ZM168.889 297.779H171.216L170.05 294.587L168.889 297.779ZM173.513 299.761V293.649H174.308L177.36 298.434V293.649H178.093V299.761H177.303L174.247 294.976V299.761H173.513Z" fill="#3A2500"/>
<path d="M81.1141 335.561V336.294H79.0797V341.673H78.3462V336.294H76.3161V335.561H81.1141ZM84.3831 341.787C83.8942 341.787 83.4692 341.667 83.1083 341.429C82.7503 341.19 82.4738 340.87 82.2788 340.468C82.0867 340.064 81.9907 339.615 81.9907 339.124V335.561H82.7241V339.124C82.7241 339.473 82.7881 339.794 82.9162 340.088C83.0472 340.382 83.2349 340.617 83.4794 340.791C83.7268 340.966 84.0281 341.053 84.3831 341.053C84.7441 341.053 85.0467 340.966 85.2912 340.791C85.5357 340.614 85.7205 340.379 85.8457 340.088C85.9738 339.794 86.0378 339.473 86.0378 339.124V335.561H86.7713V339.124C86.7713 339.493 86.716 339.84 86.6054 340.163C86.4948 340.483 86.3347 340.765 86.1251 341.01C85.9185 341.254 85.6682 341.445 85.3742 341.582C85.0802 341.718 84.7499 341.787 84.3831 341.787ZM87.7635 341.673V335.561H89.9115C90.2375 335.561 90.5314 335.641 90.7934 335.801C91.0582 335.961 91.2678 336.178 91.4221 336.452C91.5792 336.722 91.6578 337.025 91.6578 337.36C91.6578 337.654 91.5996 337.921 91.4832 338.163C91.3668 338.405 91.2067 338.607 91.0029 338.77C90.8021 338.93 90.5736 339.041 90.3175 339.102L91.8019 341.673H90.9549L89.4967 339.163H88.4969V341.673H87.7635ZM88.4969 338.429H89.8373C90.0352 338.429 90.2171 338.381 90.383 338.285C90.5489 338.186 90.6799 338.054 90.7759 337.888C90.8749 337.719 90.9243 337.53 90.9243 337.32C90.9243 337.108 90.8749 336.919 90.7759 336.753C90.6799 336.584 90.5489 336.452 90.383 336.356C90.2171 336.257 90.0352 336.207 89.8373 336.207H88.4969V338.429ZM96.8805 341.673H95.9331L94.0034 339.023L93.545 339.573V341.673H92.8115V335.561H93.545V338.434L95.9505 335.561H96.9067L94.4836 338.447L96.8805 341.673ZM97.5952 341.673L98.7783 335.561H99.3415L100.992 339.901L102.638 335.561H103.201L104.388 341.673H103.642L102.782 337.238L101.232 341.341H100.747L99.1974 337.238L98.3417 341.673H97.5952ZM105.287 341.673V335.561H109.037V336.294H106.02V338.032H108.491V338.766H106.02V340.94H109.037V341.673H105.287ZM110.045 341.673V335.561H110.839L113.891 340.346V335.561H114.624V341.673H113.834L110.778 336.888V341.673H110.045ZM115.804 341.673V335.561H116.537V341.673H115.804ZM119.871 341.787C119.542 341.787 119.225 341.736 118.92 341.634C118.614 341.529 118.346 341.381 118.116 341.189C117.889 340.997 117.728 340.768 117.632 340.503L118.317 340.246C118.375 340.409 118.483 340.551 118.64 340.673C118.8 340.793 118.988 340.886 119.203 340.953C119.419 341.02 119.641 341.053 119.871 341.053C120.133 341.053 120.376 341.011 120.6 340.927C120.828 340.839 121.011 340.719 121.151 340.564C121.29 340.41 121.36 340.23 121.36 340.023C121.36 339.81 121.287 339.637 121.142 339.503C120.996 339.367 120.81 339.259 120.583 339.18C120.356 339.099 120.119 339.036 119.871 338.993C119.449 338.923 119.071 338.824 118.736 338.696C118.404 338.565 118.141 338.383 117.946 338.15C117.754 337.917 117.658 337.61 117.658 337.229C117.658 336.874 117.76 336.564 117.964 336.299C118.17 336.034 118.442 335.829 118.78 335.683C119.118 335.538 119.481 335.465 119.871 335.465C120.194 335.465 120.507 335.516 120.81 335.618C121.116 335.717 121.385 335.862 121.618 336.054C121.851 336.246 122.018 336.481 122.12 336.757L121.426 337.01C121.367 336.845 121.258 336.702 121.098 336.583C120.941 336.46 120.755 336.367 120.539 336.303C120.327 336.236 120.104 336.203 119.871 336.203C119.612 336.2 119.371 336.242 119.147 336.329C118.923 336.417 118.741 336.538 118.601 336.692C118.461 336.846 118.391 337.025 118.391 337.229C118.391 337.473 118.455 337.661 118.583 337.792C118.714 337.92 118.892 338.016 119.116 338.08C119.34 338.144 119.592 338.201 119.871 338.25C120.267 338.317 120.634 338.424 120.972 338.569C121.309 338.712 121.58 338.902 121.784 339.141C121.99 339.38 122.094 339.674 122.094 340.023C122.094 340.378 121.99 340.688 121.784 340.953C121.58 341.218 121.309 341.423 120.972 341.568C120.634 341.714 120.267 341.787 119.871 341.787ZM127.484 335.561V336.294H125.45V341.673H124.716V336.294H122.686V335.561H127.484ZM129.632 335.561H130.519L132.741 341.673H131.964L131.51 340.425H128.641L128.192 341.673H127.41L129.632 335.561ZM128.912 339.691H131.239L130.073 336.5L128.912 339.691ZM133.537 341.673V335.561H134.331L137.383 340.346V335.561H138.117V341.673H137.326L134.27 336.888V341.673H133.537Z" fill="#3A2500"/>
<rect x="104" y="425" width="100" height="70" rx="8" fill="#D9D9D9"/>
<rect x="251" y="390" width="100" height="70" rx="8" fill="#D9D9D9"/>
<rect x="122" width="100" height="70" rx="8" fill="#D9D9D9"/>
<rect x="242" y="35" width="100" height="70" rx="8" fill="#D9D9D9"/>
</svg>
