<svg width="838" height="436" viewBox="0 0 838 436" fill="none" xmlns="http://www.w3.org/2000/svg">
<path d="M497.5 59V63.5L496.5 64L496 65L497.5 66.5L501 68.5L504.5 69.5L514 75.5L519.5 81L530.5 92L533.5 95L537 100.5L539 103.5L541.5 104L543 103L542.5 100.5V98L545 95.5L546.5 95L548.5 94.5L550.5 96.5L553 98L555.5 101H557.5L558.5 99H563L564.5 97.5L567.5 93.5L571 91.5H575.5L579.5 94L582.5 98L591.5 99L594 102L597.5 104.5L601 104L605.5 103L607 101V98L608.5 96.5L611 98L613 100.5H616L619 102.5L617 103.5L614.5 105L615 108.5L615.5 112.5L612.5 117.5L608.5 118.5L607.5 126L609.5 129L613.5 135V139.5L610 145L607.5 146.5L606.5 144.5H604L599 147H588L589 172.5L590.5 175L593.5 176.5L594 180L590.5 180.5L587 181L584 180L581.5 180.5L578 184L567 191L567.5 193H570L573.5 192.5L575 196L575.5 201.5L577.5 205L583.5 212L585.5 215.5L583.5 217.5L582 221L580.5 224L581.5 227L583 229L582 231L583.5 232.5L582.5 234L579 236.5L575.5 241.5L570 246L567 248.5L566 253.5L564.5 256.5L562 257L557.5 259L553 259.5L549.5 261.5L547.5 271.5L543.5 273L541 275H539.5L538.5 272.5L537 270.5L536 271L533.5 274H530L528 275.5L529 277.5L526.5 278L524 282.5L521 283.5L518 287L519.5 289.5L521 291.5L518 293V297.5L520.5 300.5V303.5L523 307.5H525.5L527 305L534 305.5L535.5 307.5L536 312L539 315.5L539.5 320L542.5 321.5V324L538 324.5L534.5 323.5L532 324L529.5 327L527 328L524.5 325.5L520 326L517 329L514.5 332L512.5 335L509.5 336L504.5 342L501.5 343L499.5 341L498 337L499 330.5L498 325L495 324L494.5 322L493.5 318L490 316.5H486.5L484 318.5L483 321L481.5 324L481 330.5L480 332L476.5 332.5H473.5L471 335.5L472 339.5L471 341L468 340.5L466.5 338.5L464 338L461.5 340.5L458.5 343.5L456.5 345.5H454L452.5 344.5L450 343H446.5L441 342.5L438.5 341L434 340.5L429 340L423.5 340.5L420.5 345.5H417L413.5 346V349.5L411 352.5V358.5L408 362.5L406 363.5C405.667 364.167 405 365.6 405 366C405 366.4 403 367.167 402 367.5L396.5 368.5L392.5 371L391.5 376.5L389 379L386 380L382 380.5V378.5L379 377L375 378L371 375.5H368.5L368 373.5L366.5 371.5L367 368.5L366.5 364L365.5 358.5H361H356.5L354.5 357.5L353 354.5L348.5 351.5L344 349.5L342.5 345H340.5L337.5 342.5H336H333.5H329L327.5 340L322.5 338.5L317 337.5L316 335V331.5L313 333L310.5 332C309.167 332.333 306.4 333 306 333C305.6 333 304.167 334.333 303.5 335L298 334.5H293L287.5 338L285 342.5L283 344L280 344.5L276.5 346H273L272 344.5L272.5 330.704L272 328.5V325.5L272.5 322.5L274.5 321.5L275 319.5L273.5 318.5L272 318L270.5 315.5L269 313H267.5L266 315.5L264.5 314L264 312.5V310L265.5 308L268.5 309.5L269.5 307.5L270 303H268L266 302.5H263L262 300.5L261.5 295V292.5L263 290L263.5 286V283L262.5 281L260.5 279.5V275.5L260 271.5L259.5 269L262 266L263.5 263L263 259L262.5 257L260 256.5L257 256L255.5 254L253.5 251.5L252 251L249 250V245.5L247 241L244 232L240 231.5L239 229.5L240.5 227.5L242.5 227H245L248.5 229.5L251 230L252 228.5L251.298 226.5L249.5 225V223L252.5 220.5L256 217.5L263.5 217L268.5 218.5L274.5 219.5L279.5 217.5L282.5 218L282 220L278.5 221.5L275.5 222.5L274 226.5L272.5 229L273.5 231.5L275.5 231C275.5 230 275.562 227.9 275.811 227.5C276.06 227.1 277.374 225 278 224L281 222.5L283.5 221.5H286L287.5 220.5L287 218C286.5 217.333 285.6 215.956 286 215.779C286.4 215.602 286.167 214.186 286 213.5L284 212.5L282.5 214.5L279 215L275.811 216.5H272.5L270 214.5L269.5 213L271.5 210.5L273.5 208.5L274 204V200.5L275 197L274 194.5L271 192.5L267.5 193.5L264.5 194L261.5 193L256 189H252L247.5 189.5L242.5 193L237.5 194.5L233.5 195L231 197L229 196.5L224.5 195L224 191L225.5 190L229 191L230.5 190L225.5 179L223.5 175L219.5 174.5H215.5C214.833 174 213.5 172.9 213.5 172.5V168L211.5 165L209 163.5L210 160L212.5 156L216 152.5L214.5 149.5L214 147L215.5 143L216.5 140.5L218 138.5L220.5 137.5L222 132.5L223.5 131L226.5 133.5L230 140.5L232.5 142.5L235 142L236 139.5V137L235 134.5V132L235.5 129.5L236.5 130.5L238.5 130L241 129L242 127.5L244 125H245.5L250 123.5L252.5 122L255.5 119L259 116L262.5 117L264 120H267L268.5 119L272.5 117L274.5 118L276 121.5H284.5L286 124.5L290.5 129.5L292.5 131.5L292 134L292.5 138L293.5 139L294.5 137.5L295 135.5L294.5 133.5L295.5 131L297.5 132.5L300 134.5L301.5 136L304 138L305.5 137L307 135L308.5 134L311.5 130.5H315.5H320L321 132.5L323 133.5V130.5L325.5 129.5L329.5 130L333.5 130.5L335 132.5L336 135L337.5 136.5L341.5 138.5H345L346 135.5L348 134.5L349 135L351.5 137L354.5 138L357.5 136L360 134.5V130L359 126.5H357L353.5 125L351.5 122L350.5 120L347 119.5L346 117.5L347.5 116L350 115L354.5 112.5L356 110.5L355 109.5L353.5 109C353.333 108.167 353 106.4 353 106C353 105.6 354 103.833 354.5 103L356.5 101H358.5L364 101.5L367 101L365.5 99.5L363 98.5L358.5 97.5L357.5 95.5L357 94L355 93.5L354 91L355.5 90.5L357 88.5L355 88V86L358 84H367.5L377.5 81.5L384.5 79.5L393 75L396.5 73L401.5 71L405.5 70.5L409.5 68.5L410 66.5L412 66L414 68H416.5L417.5 66L418 62L421.5 59.5L424 57.5L428 57L433 58L435 59L437 58.5L438 56.5L441 56L443.5 60L445.5 63.5L447.5 67L448.5 72L450.5 72.5L452.5 70.5L453.5 68.5L455 68L456 69L459 71H464L466 72.5H467.5L468 71L470.5 70.5L471.5 72L470.5 74H468.5V78H470.5L474.5 77L481.5 72.5L484.5 69.5L486.5 66.5L490 63.5L492.5 60L496.5 58L497.5 59Z" fill="#F5CF91"/>
<path d="M260 273L264.5 270L271 267L277 265.5L281.5 266L286 268.5L289.5 274L292.5 278.5L295 282L298 284L301 284.5M301 284.5V279.5L304.5 227.5L313.5 223L320 221.5L327.5 219.5L331 218H334.5L338 220.5L343 224.5L350.5 229L359 235.5L362 239.5L368 245L371 248.5H375L386 247L398 246.5L402 245L405 244L408.5 246L411.5 249L415 253L418.5 255.5L420 257.5V267.5L421.5 270H424L426 271C426.333 271.333 427 272.1 427 272.5C427 272.9 427.667 275 428 276L430 280.5L433 282L438 281.5L442.5 280H445L446.5 280.5L448 287.5H452L453.5 282L461 271L471 262L476.5 257.5L479 252.5M301 284.5L314.5 284V278.5L316.5 272.5L323 270L327 266.5H329L328.5 263.5L331.5 262L332.5 260.5L334 261.5L335.5 263.5L337 265H340L342 268.5L348.5 269L351 274.5V278.5V282.5L357.5 285.5L366 284H370L374.5 292L377 296L380.5 299.5V303.5L383.5 306.5L387.5 309L399.5 318L404.5 319L414 326L424.5 328L431 330.5H436V335V339L439 341L441.5 342.5L449 343L452.5 344.5L451 342L450.5 339L451.5 336L455 331.5L457 329L456 326.5L454 324.5L452 322V314.5H450L447 314L445 312L442 311.5V309L443 306L446.5 305H452L454.5 304.5L456 302L457 299.5L457.5 297L456.5 295.5L456 293.5L458 293L461 292.5L461.5 290L461 287L462.5 283H464.5L465.5 284.5L468 284L470.5 282L472 280.5L473.5 278L475 277.5L476.5 279.5L478.5 280.5L479 283L476.5 285L474.5 286L475.5 288L478 289L480.5 291.5M479 252.5L481.5 248L486 246L494 246.5L502.5 248L504.5 248.5L506 248V245.5V239L509 236.5L515.5 235.5L519.5 236.5L527.5 237L535 234.5L541.5 232L550 230.5L559 228L568 227.5L572 230.5L579 231L582 232.5M479 252.5L480 256L481.5 257.5L480 259.5L477 262.5L474.5 265L472 267L471 269L472 271L474.5 270.5L476 269.5L477.5 270.5L479 273L483 273.5L485 272.5L485.5 270L487 269.5L485.5 266H488L490 268.5L491.5 270.5L493 272H495L498.5 273.5L500.5 274L503.5 274.5L507.5 274L508.5 275L504 279L493 288H486.5L482.5 289.5L480.5 291.5M480.5 291.5L479 293.5H475L472.5 291.5H469L466.5 294.5L464 297V300L466 302.5L470.5 301.5H475.5L479 298.5L480.5 299L482.5 300.5L483.5 301.5L486 300.5L488.5 297.5L490.5 296.5L492.5 297.5L494.5 300L496 301L499 300.5H500.5L503.5 300L505.5 298.5L508.5 297.5L512 297L515.5 295L517.5 294.5" stroke="#C6A26A"/>
<path d="M389.312 179H388.01L385.358 175.358L384.728 176.114V179H383.72V170.6H384.728V174.548L388.034 170.6H389.348L386.018 174.566L389.312 179ZM393.026 170.6H394.244L397.298 179H396.23L395.606 177.284H391.664L391.046 179H389.972L393.026 170.6ZM392.036 176.276H395.234L393.632 171.89L392.036 176.276ZM398.082 179V177.992L403.524 171.608H398.082V170.6H404.874V171.608L399.432 177.992H404.874V179H398.082ZM408.706 170.6H409.924L412.978 179H411.91L411.286 177.284H407.344L406.726 179H405.652L408.706 170.6ZM407.716 176.276H410.914L409.312 171.89L407.716 176.276ZM419.664 179H418.362L415.71 175.358L415.08 176.114V179H414.072V170.6H415.08V174.548L418.386 170.6H419.7L416.37 174.566L419.664 179ZM425.882 170.6H426.89V179H425.882V175.004H421.724V179H420.716V170.6H421.724V173.996H425.882V170.6ZM431.291 179.156C430.839 179.156 430.403 179.086 429.983 178.946C429.563 178.802 429.195 178.598 428.879 178.334C428.567 178.07 428.345 177.756 428.213 177.392L429.155 177.038C429.235 177.262 429.383 177.458 429.599 177.626C429.819 177.79 430.077 177.918 430.373 178.01C430.669 178.102 430.975 178.148 431.291 178.148C431.651 178.148 431.985 178.09 432.293 177.974C432.605 177.854 432.857 177.688 433.049 177.476C433.241 177.264 433.337 177.016 433.337 176.732C433.337 176.44 433.237 176.202 433.037 176.018C432.837 175.83 432.581 175.682 432.269 175.574C431.957 175.462 431.631 175.376 431.291 175.316C430.711 175.22 430.191 175.084 429.731 174.908C429.275 174.728 428.913 174.478 428.645 174.158C428.381 173.838 428.249 173.416 428.249 172.892C428.249 172.404 428.389 171.978 428.669 171.614C428.953 171.25 429.327 170.968 429.791 170.768C430.255 170.568 430.755 170.468 431.291 170.468C431.735 170.468 432.165 170.538 432.581 170.678C433.001 170.814 433.371 171.014 433.691 171.278C434.011 171.542 434.241 171.864 434.381 172.244L433.427 172.592C433.347 172.364 433.197 172.168 432.977 172.004C432.761 171.836 432.505 171.708 432.209 171.62C431.917 171.528 431.611 171.482 431.291 171.482C430.935 171.478 430.603 171.536 430.295 171.656C429.987 171.776 429.737 171.942 429.545 172.154C429.353 172.366 429.257 172.612 429.257 172.892C429.257 173.228 429.345 173.486 429.521 173.666C429.701 173.842 429.945 173.974 430.253 174.062C430.561 174.15 430.907 174.228 431.291 174.296C431.835 174.388 432.339 174.534 432.803 174.734C433.267 174.93 433.639 175.192 433.919 175.52C434.203 175.848 434.345 176.252 434.345 176.732C434.345 177.22 434.203 177.646 433.919 178.01C433.639 178.374 433.267 178.656 432.803 178.856C432.339 179.056 431.835 179.156 431.291 179.156ZM441.754 170.6V171.608H438.958V179H437.95V171.608H435.16V170.6H441.754ZM444.706 170.6H445.924L448.978 179H447.91L447.286 177.284H443.344L442.726 179H441.652L444.706 170.6ZM443.716 176.276H446.914L445.312 171.89L443.716 176.276ZM450.072 179V170.6H451.164L455.358 177.176V170.6H456.366V179H455.28L451.08 172.424V179H450.072Z" fill="#3A2500"/>
<path d="M491.26 259H490.175L487.965 255.965L487.44 256.595V259H486.6V252H487.44V255.29L490.195 252H491.29L488.515 255.305L491.26 259ZM496.369 252H497.359L494.989 255.835V259H494.149V255.835L491.779 252H492.769L494.569 254.915L496.369 252ZM498.27 259V252H500.73C501.103 252 501.44 252.092 501.74 252.275C502.043 252.458 502.283 252.707 502.46 253.02C502.64 253.33 502.73 253.677 502.73 254.06C502.73 254.397 502.663 254.703 502.53 254.98C502.397 255.257 502.213 255.488 501.98 255.675C501.75 255.858 501.488 255.985 501.195 256.055L502.895 259H501.925L500.255 256.125H499.11V259H498.27ZM499.11 255.285H500.645C500.872 255.285 501.08 255.23 501.27 255.12C501.46 255.007 501.61 254.855 501.72 254.665C501.833 254.472 501.89 254.255 501.89 254.015C501.89 253.772 501.833 253.555 501.72 253.365C501.61 253.172 501.46 253.02 501.27 252.91C501.08 252.797 500.872 252.74 500.645 252.74H499.11V255.285ZM507.033 259.13C506.549 259.13 506.098 259.037 505.678 258.85C505.261 258.66 504.896 258.398 504.583 258.065C504.273 257.728 504.029 257.342 503.853 256.905C503.676 256.465 503.588 255.995 503.588 255.495C503.588 254.978 503.679 254.5 503.863 254.06C504.049 253.62 504.303 253.237 504.623 252.91C504.946 252.583 505.314 252.33 505.728 252.15C506.144 251.967 506.584 251.875 507.048 251.875C507.574 251.875 508.076 251.998 508.553 252.245C509.029 252.492 509.439 252.848 509.783 253.315L509.033 253.72C508.776 253.393 508.471 253.143 508.118 252.97C507.768 252.797 507.408 252.71 507.038 252.71C506.684 252.71 506.349 252.782 506.033 252.925C505.719 253.068 505.441 253.268 505.198 253.525C504.958 253.782 504.769 254.078 504.633 254.415C504.496 254.752 504.428 255.117 504.428 255.51C504.428 255.893 504.496 256.253 504.633 256.59C504.769 256.927 504.956 257.223 505.193 257.48C505.433 257.733 505.711 257.932 506.028 258.075C506.344 258.218 506.683 258.29 507.043 258.29C507.329 258.29 507.601 258.242 507.858 258.145C508.118 258.048 508.356 257.912 508.573 257.735C508.793 257.558 508.979 257.35 509.133 257.11C509.289 256.87 509.408 256.607 509.488 256.32H507.763V255.57H510.468C510.464 256.06 510.371 256.52 510.188 256.95C510.008 257.38 509.759 257.758 509.443 258.085C509.129 258.412 508.766 258.668 508.352 258.855C507.943 259.038 507.503 259.13 507.033 259.13ZM515.314 252H516.304L513.934 255.835V259H513.094V255.835L510.724 252H511.714L513.514 254.915L515.314 252ZM517.005 259V258.16L521.54 252.84H517.005V252H522.665V252.84L518.13 258.16H522.665V259H517.005ZM526.126 259.13C525.749 259.13 525.386 259.072 525.036 258.955C524.686 258.835 524.379 258.665 524.116 258.445C523.856 258.225 523.671 257.963 523.561 257.66L524.346 257.365C524.412 257.552 524.536 257.715 524.716 257.855C524.899 257.992 525.114 258.098 525.361 258.175C525.607 258.252 525.862 258.29 526.126 258.29C526.426 258.29 526.704 258.242 526.961 258.145C527.221 258.045 527.431 257.907 527.591 257.73C527.751 257.553 527.831 257.347 527.831 257.11C527.831 256.867 527.747 256.668 527.581 256.515C527.414 256.358 527.201 256.235 526.941 256.145C526.681 256.052 526.409 255.98 526.126 255.93C525.642 255.85 525.209 255.737 524.826 255.59C524.446 255.44 524.144 255.232 523.921 254.965C523.701 254.698 523.591 254.347 523.591 253.91C523.591 253.503 523.707 253.148 523.941 252.845C524.177 252.542 524.489 252.307 524.876 252.14C525.262 251.973 525.679 251.89 526.126 251.89C526.496 251.89 526.854 251.948 527.201 252.065C527.551 252.178 527.859 252.345 528.126 252.565C528.392 252.785 528.584 253.053 528.701 253.37L527.906 253.66C527.839 253.47 527.714 253.307 527.531 253.17C527.351 253.03 527.137 252.923 526.891 252.85C526.647 252.773 526.392 252.735 526.126 252.735C525.829 252.732 525.552 252.78 525.296 252.88C525.039 252.98 524.831 253.118 524.671 253.295C524.511 253.472 524.431 253.677 524.431 253.91C524.431 254.19 524.504 254.405 524.651 254.555C524.801 254.702 525.004 254.812 525.261 254.885C525.517 254.958 525.806 255.023 526.126 255.08C526.579 255.157 526.999 255.278 527.386 255.445C527.772 255.608 528.082 255.827 528.316 256.1C528.552 256.373 528.671 256.71 528.671 257.11C528.671 257.517 528.552 257.872 528.316 258.175C528.082 258.478 527.772 258.713 527.386 258.88C526.999 259.047 526.579 259.13 526.126 259.13ZM534.844 252V252.84H532.514V259H531.674V252.84H529.349V252H534.844ZM537.304 252H538.319L540.864 259H539.974L539.454 257.57H536.169L535.654 259H534.759L537.304 252ZM536.479 256.73H539.144L537.809 253.075L536.479 256.73ZM541.776 259V252H542.686L546.181 257.48V252H547.021V259H546.116L542.616 253.52V259H541.776Z" fill="#3A2500"/>
<path d="M468.895 306V306.84H466.565V313H465.725V306.84H463.4V306H468.895ZM471.355 306H472.37L474.915 313H474.025L473.505 311.57H470.22L469.705 313H468.81L471.355 306ZM470.53 310.73H473.195L471.86 307.075L470.53 310.73ZM476.673 313.13C476.439 313.13 476.211 313.09 475.988 313.01C475.764 312.933 475.561 312.817 475.378 312.66L475.913 312.01C476.009 312.093 476.121 312.162 476.248 312.215C476.378 312.265 476.519 312.29 476.673 312.29C476.893 312.29 477.093 312.232 477.273 312.115C477.453 311.998 477.596 311.845 477.703 311.655C477.813 311.465 477.868 311.262 477.868 311.045V306H478.708V311.045C478.708 311.418 478.616 311.763 478.433 312.08C478.249 312.393 478.004 312.647 477.698 312.84C477.391 313.033 477.049 313.13 476.673 313.13ZM480.059 313V306H480.899V313H480.059ZM486.912 313H485.827L483.617 309.965L483.092 310.595V313H482.252V306H483.092V309.29L485.847 306H486.942L484.167 309.305L486.912 313ZM487.939 313V306H488.779V313H487.939ZM492.598 313.13C492.222 313.13 491.858 313.072 491.508 312.955C491.158 312.835 490.852 312.665 490.588 312.445C490.328 312.225 490.143 311.963 490.033 311.66L490.818 311.365C490.885 311.552 491.008 311.715 491.188 311.855C491.372 311.992 491.587 312.098 491.833 312.175C492.08 312.252 492.335 312.29 492.598 312.29C492.898 312.29 493.177 312.242 493.433 312.145C493.693 312.045 493.903 311.907 494.063 311.73C494.223 311.553 494.303 311.347 494.303 311.11C494.303 310.867 494.22 310.668 494.053 310.515C493.887 310.358 493.673 310.235 493.413 310.145C493.153 310.052 492.882 309.98 492.598 309.93C492.115 309.85 491.682 309.737 491.298 309.59C490.918 309.44 490.617 309.232 490.393 308.965C490.173 308.698 490.063 308.347 490.063 307.91C490.063 307.503 490.18 307.148 490.413 306.845C490.65 306.542 490.962 306.307 491.348 306.14C491.735 305.973 492.152 305.89 492.598 305.89C492.968 305.89 493.327 305.948 493.673 306.065C494.023 306.178 494.332 306.345 494.598 306.565C494.865 306.785 495.057 307.053 495.173 307.37L494.378 307.66C494.312 307.47 494.187 307.307 494.003 307.17C493.823 307.03 493.61 306.923 493.363 306.85C493.12 306.773 492.865 306.735 492.598 306.735C492.302 306.732 492.025 306.78 491.768 306.88C491.512 306.98 491.303 307.118 491.143 307.295C490.983 307.472 490.903 307.677 490.903 307.91C490.903 308.19 490.977 308.405 491.123 308.555C491.273 308.702 491.477 308.812 491.733 308.885C491.99 308.958 492.278 309.023 492.598 309.08C493.052 309.157 493.472 309.278 493.858 309.445C494.245 309.608 494.555 309.827 494.788 310.1C495.025 310.373 495.143 310.71 495.143 311.11C495.143 311.517 495.025 311.872 494.788 312.175C494.555 312.478 494.245 312.713 493.858 312.88C493.472 313.047 493.052 313.13 492.598 313.13ZM501.317 306V306.84H498.987V313H498.147V306.84H495.822V306H501.317ZM503.777 306H504.792L507.337 313H506.447L505.927 311.57H502.642L502.127 313H501.232L503.777 306ZM502.952 310.73H505.617L504.282 307.075L502.952 310.73ZM508.248 313V306H509.158L512.653 311.48V306H513.493V313H512.588L509.088 307.52V313H508.248Z" fill="#3A2500"/>
<path d="M360.34 267.13C359.78 267.13 359.293 266.993 358.88 266.72C358.47 266.447 358.153 266.08 357.93 265.62C357.71 265.157 357.6 264.643 357.6 264.08V260H358.44V264.08C358.44 264.48 358.513 264.848 358.66 265.185C358.81 265.522 359.025 265.79 359.305 265.99C359.588 266.19 359.933 266.29 360.34 266.29C360.753 266.29 361.1 266.19 361.38 265.99C361.66 265.787 361.872 265.518 362.015 265.185C362.162 264.848 362.235 264.48 362.235 264.08V260H363.075V264.08C363.075 264.503 363.012 264.9 362.885 265.27C362.758 265.637 362.575 265.96 362.335 266.24C362.098 266.52 361.812 266.738 361.475 266.895C361.138 267.052 360.76 267.13 360.34 267.13ZM364.08 267V266.16L368.615 260.84H364.08V260H369.74V260.84L365.205 266.16H369.74V267H364.08ZM370.735 267V260H373.15C373.496 260 373.811 260.072 374.095 260.215C374.381 260.355 374.608 260.56 374.775 260.83C374.941 261.1 375.025 261.423 375.025 261.8C375.025 262.003 374.99 262.2 374.92 262.39C374.853 262.577 374.76 262.738 374.64 262.875C374.523 263.008 374.39 263.098 374.24 263.145C374.45 263.198 374.628 263.293 374.775 263.43C374.921 263.563 375.04 263.72 375.13 263.9C375.223 264.08 375.29 264.268 375.33 264.465C375.37 264.662 375.39 264.852 375.39 265.035C375.39 265.422 375.301 265.763 375.125 266.06C374.951 266.353 374.718 266.583 374.425 266.75C374.131 266.917 373.808 267 373.455 267H370.735ZM371.575 266.26H373.38C373.61 266.26 373.818 266.202 374.005 266.085C374.195 265.965 374.346 265.802 374.46 265.595C374.573 265.388 374.63 265.155 374.63 264.895C374.63 264.665 374.573 264.448 374.46 264.245C374.346 264.038 374.195 263.872 374.005 263.745C373.818 263.618 373.61 263.555 373.38 263.555H371.575V266.26ZM371.575 262.83H373.07C373.376 262.83 373.638 262.74 373.855 262.56C374.075 262.377 374.185 262.122 374.185 261.795C374.185 261.442 374.075 261.178 373.855 261.005C373.638 260.828 373.376 260.74 373.07 260.74H371.575V262.83ZM376.272 267V260H380.567V260.84H377.112V262.83H379.942V263.67H377.112V266.16H380.567V267H376.272ZM386.381 267H385.296L383.086 263.965L382.561 264.595V267H381.721V260H382.561V263.29L385.316 260H386.411L383.636 263.305L386.381 267ZM387.408 267V260H388.248V267H387.408ZM392.067 267.13C391.69 267.13 391.327 267.072 390.977 266.955C390.627 266.835 390.32 266.665 390.057 266.445C389.797 266.225 389.612 265.963 389.502 265.66L390.287 265.365C390.354 265.552 390.477 265.715 390.657 265.855C390.84 265.992 391.055 266.098 391.302 266.175C391.549 266.252 391.804 266.29 392.067 266.29C392.367 266.29 392.645 266.242 392.902 266.145C393.162 266.045 393.372 265.907 393.532 265.73C393.692 265.553 393.772 265.347 393.772 265.11C393.772 264.867 393.689 264.668 393.522 264.515C393.355 264.358 393.142 264.235 392.882 264.145C392.622 264.052 392.35 263.98 392.067 263.93C391.584 263.85 391.15 263.737 390.767 263.59C390.387 263.44 390.085 263.232 389.862 262.965C389.642 262.698 389.532 262.347 389.532 261.91C389.532 261.503 389.649 261.148 389.882 260.845C390.119 260.542 390.43 260.307 390.817 260.14C391.204 259.973 391.62 259.89 392.067 259.89C392.437 259.89 392.795 259.948 393.142 260.065C393.492 260.178 393.8 260.345 394.067 260.565C394.334 260.785 394.525 261.053 394.642 261.37L393.847 261.66C393.78 261.47 393.655 261.307 393.472 261.17C393.292 261.03 393.079 260.923 392.832 260.85C392.589 260.773 392.334 260.735 392.067 260.735C391.77 260.732 391.494 260.78 391.237 260.88C390.98 260.98 390.772 261.118 390.612 261.295C390.452 261.472 390.372 261.677 390.372 261.91C390.372 262.19 390.445 262.405 390.592 262.555C390.742 262.702 390.945 262.812 391.202 262.885C391.459 262.958 391.747 263.023 392.067 263.08C392.52 263.157 392.94 263.278 393.327 263.445C393.714 263.608 394.024 263.827 394.257 264.1C394.494 264.373 394.612 264.71 394.612 265.11C394.612 265.517 394.494 265.872 394.257 266.175C394.024 266.478 393.714 266.713 393.327 266.88C392.94 267.047 392.52 267.13 392.067 267.13ZM400.786 260V260.84H398.456V267H397.616V260.84H395.291V260H400.786ZM403.246 260H404.261L406.806 267H405.916L405.396 265.57H402.111L401.596 267H400.701L403.246 260ZM402.421 264.73H405.086L403.751 261.075L402.421 264.73ZM407.717 267V260H408.627L412.122 265.48V260H412.962V267H412.057L408.557 261.52V267H407.717Z" fill="#3A2500"/>
<path d="M301.895 308V308.84H299.565V315H298.725V308.84H296.4V308H301.895ZM305.639 315.13C305.079 315.13 304.592 314.993 304.179 314.72C303.769 314.447 303.452 314.08 303.229 313.62C303.009 313.157 302.899 312.643 302.899 312.08V308H303.739V312.08C303.739 312.48 303.812 312.848 303.959 313.185C304.109 313.522 304.324 313.79 304.604 313.99C304.887 314.19 305.232 314.29 305.639 314.29C306.052 314.29 306.399 314.19 306.679 313.99C306.959 313.787 307.17 313.518 307.314 313.185C307.46 312.848 307.534 312.48 307.534 312.08V308H308.374V312.08C308.374 312.503 308.31 312.9 308.184 313.27C308.057 313.637 307.874 313.96 307.634 314.24C307.397 314.52 307.11 314.738 306.774 314.895C306.437 315.052 306.059 315.13 305.639 315.13ZM309.51 315V308H311.97C312.343 308 312.68 308.092 312.98 308.275C313.283 308.458 313.523 308.707 313.7 309.02C313.88 309.33 313.97 309.677 313.97 310.06C313.97 310.397 313.903 310.703 313.77 310.98C313.637 311.257 313.453 311.488 313.22 311.675C312.99 311.858 312.728 311.985 312.435 312.055L314.135 315H313.165L311.495 312.125H310.35V315H309.51ZM310.35 311.285H311.885C312.112 311.285 312.32 311.23 312.51 311.12C312.7 311.007 312.85 310.855 312.96 310.665C313.073 310.472 313.13 310.255 313.13 310.015C313.13 309.772 313.073 309.555 312.96 309.365C312.85 309.172 312.7 309.02 312.51 308.91C312.32 308.797 312.112 308.74 311.885 308.74H310.35V311.285ZM319.951 315H318.866L316.656 311.965L316.131 312.595V315H315.291V308H316.131V311.29L318.886 308H319.981L317.206 311.305L319.951 315ZM320.77 315L322.125 308H322.77L324.66 312.97L326.545 308H327.19L328.55 315H327.695L326.71 309.92L324.935 314.62H324.38L322.605 309.92L321.625 315H320.77ZM329.579 315V308H333.874V308.84H330.419V310.83H333.249V311.67H330.419V314.16H333.874V315H329.579ZM335.028 315V308H335.938L339.433 313.48V308H340.273V315H339.368L335.868 309.52V315H335.028ZM341.623 315V308H342.463V315H341.623ZM346.282 315.13C345.905 315.13 345.542 315.072 345.192 314.955C344.842 314.835 344.535 314.665 344.272 314.445C344.012 314.225 343.827 313.963 343.717 313.66L344.502 313.365C344.568 313.552 344.692 313.715 344.872 313.855C345.055 313.992 345.27 314.098 345.517 314.175C345.763 314.252 346.018 314.29 346.282 314.29C346.582 314.29 346.86 314.242 347.117 314.145C347.377 314.045 347.587 313.907 347.747 313.73C347.907 313.553 347.987 313.347 347.987 313.11C347.987 312.867 347.903 312.668 347.737 312.515C347.57 312.358 347.357 312.235 347.097 312.145C346.837 312.052 346.565 311.98 346.282 311.93C345.798 311.85 345.365 311.737 344.982 311.59C344.602 311.44 344.3 311.232 344.077 310.965C343.857 310.698 343.747 310.347 343.747 309.91C343.747 309.503 343.863 309.148 344.097 308.845C344.333 308.542 344.645 308.307 345.032 308.14C345.418 307.973 345.835 307.89 346.282 307.89C346.652 307.89 347.01 307.948 347.357 308.065C347.707 308.178 348.015 308.345 348.282 308.565C348.548 308.785 348.74 309.053 348.857 309.37L348.062 309.66C347.995 309.47 347.87 309.307 347.687 309.17C347.507 309.03 347.293 308.923 347.047 308.85C346.803 308.773 346.548 308.735 346.282 308.735C345.985 308.732 345.708 308.78 345.452 308.88C345.195 308.98 344.987 309.118 344.827 309.295C344.667 309.472 344.587 309.677 344.587 309.91C344.587 310.19 344.66 310.405 344.807 310.555C344.957 310.702 345.16 310.812 345.417 310.885C345.673 310.958 345.962 311.023 346.282 311.08C346.735 311.157 347.155 311.278 347.542 311.445C347.928 311.608 348.238 311.827 348.472 312.1C348.708 312.373 348.827 312.71 348.827 313.11C348.827 313.517 348.708 313.872 348.472 314.175C348.238 314.478 347.928 314.713 347.542 314.88C347.155 315.047 346.735 315.13 346.282 315.13ZM355 308V308.84H352.67V315H351.83V308.84H349.505V308H355ZM357.461 308H358.476L361.021 315H360.131L359.611 313.57H356.326L355.811 315H354.916L357.461 308ZM356.636 312.73H359.301L357.966 309.075L356.636 312.73ZM361.932 315V308H362.842L366.337 313.48V308H367.177V315H366.272L362.772 309.52V315H361.932Z" fill="#3A2500"/>
<path d="M556 254.5C555.724 254.5 555.5 254.724 555.5 255C555.5 255.276 555.724 255.5 556 255.5V254.5ZM713.981 254.5C713.705 254.5 713.481 254.724 713.481 255C713.481 255.276 713.705 255.5 713.981 255.5V254.5ZM703.919 255.5C704.195 255.5 704.419 255.276 704.419 255C704.419 254.724 704.195 254.5 703.919 254.5V255.5ZM697.881 254.5C697.605 254.5 697.381 254.724 697.381 255C697.381 255.276 697.605 255.5 697.881 255.5V254.5ZM687.819 255.5C688.095 255.5 688.319 255.276 688.319 255C688.319 254.724 688.095 254.5 687.819 254.5V255.5ZM681.781 254.5C681.505 254.5 681.281 254.724 681.281 255C681.281 255.276 681.505 255.5 681.781 255.5V254.5ZM671.719 255.5C671.995 255.5 672.219 255.276 672.219 255C672.219 254.724 671.995 254.5 671.719 254.5V255.5ZM665.681 254.5C665.405 254.5 665.181 254.724 665.181 255C665.181 255.276 665.405 255.5 665.681 255.5V254.5ZM655.619 255.5C655.895 255.5 656.119 255.276 656.119 255C656.119 254.724 655.895 254.5 655.619 254.5V255.5ZM649.581 254.5C649.305 254.5 649.081 254.724 649.081 255C649.081 255.276 649.305 255.5 649.581 255.5V254.5ZM639.519 255.5C639.795 255.5 640.019 255.276 640.019 255C640.019 254.724 639.795 254.5 639.519 254.5V255.5ZM633.481 254.5C633.205 254.5 632.981 254.724 632.981 255C632.981 255.276 633.205 255.5 633.481 255.5V254.5ZM623.419 255.5C623.695 255.5 623.919 255.276 623.919 255C623.919 254.724 623.695 254.5 623.419 254.5V255.5ZM617.381 254.5C617.105 254.5 616.881 254.724 616.881 255C616.881 255.276 617.105 255.5 617.381 255.5V254.5ZM607.319 255.5C607.595 255.5 607.819 255.276 607.819 255C607.819 254.724 607.595 254.5 607.319 254.5V255.5ZM601.281 254.5C601.005 254.5 600.781 254.724 600.781 255C600.781 255.276 601.005 255.5 601.281 255.5V254.5ZM591.219 255.5C591.495 255.5 591.719 255.276 591.719 255C591.719 254.724 591.495 254.5 591.219 254.5V255.5ZM585.181 254.5C584.905 254.5 584.681 254.724 584.681 255C584.681 255.276 584.905 255.5 585.181 255.5V254.5ZM575.119 255.5C575.395 255.5 575.619 255.276 575.619 255C575.619 254.724 575.395 254.5 575.119 254.5V255.5ZM569.081 254.5C568.805 254.5 568.581 254.724 568.581 255C568.581 255.276 568.805 255.5 569.081 255.5V254.5ZM559.019 255.5C559.295 255.5 559.519 255.276 559.519 255C559.519 254.724 559.295 254.5 559.019 254.5V255.5ZM717 254.5H713.981V255.5H717V254.5ZM703.919 254.5H697.881V255.5H703.919V254.5ZM687.819 254.5H681.781V255.5H687.819V254.5ZM671.719 254.5H665.681V255.5H671.719V254.5ZM655.619 254.5L649.581 254.5V255.5L655.619 255.5V254.5ZM639.519 254.5H633.481V255.5H639.519V254.5ZM623.419 254.5H617.381V255.5H623.419V254.5ZM607.319 254.5H601.281V255.5H607.319V254.5ZM591.219 254.5H585.181V255.5H591.219V254.5ZM575.119 254.5H569.081V255.5H575.119V254.5ZM559.019 254.5H556V255.5H559.019V254.5Z" fill="#4A4C4B"/>
<path d="M474 175.5L647 175.5V131" stroke="#4A4C4B" stroke-linecap="round" stroke-dasharray="6 10"/>
<path d="M155 263H154.5V263.5H155V263ZM155.5 226C155.5 225.724 155.276 225.5 155 225.5C154.724 225.5 154.5 225.724 154.5 226H155.5ZM347.938 262.5C347.661 262.5 347.438 262.724 347.438 263C347.438 263.276 347.661 263.5 347.938 263.5V262.5ZM337.729 263.5C338.005 263.5 338.229 263.276 338.229 263C338.229 262.724 338.005 262.5 337.729 262.5V263.5ZM331.604 262.5C331.328 262.5 331.104 262.724 331.104 263C331.104 263.276 331.328 263.5 331.604 263.5V262.5ZM321.396 263.5C321.672 263.5 321.896 263.276 321.896 263C321.896 262.724 321.672 262.5 321.396 262.5V263.5ZM315.271 262.5C314.995 262.5 314.771 262.724 314.771 263C314.771 263.276 314.995 263.5 315.271 263.5V262.5ZM305.063 263.5C305.339 263.5 305.563 263.276 305.563 263C305.563 262.724 305.339 262.5 305.063 262.5V263.5ZM298.938 262.5C298.661 262.5 298.438 262.724 298.438 263C298.438 263.276 298.661 263.5 298.938 263.5V262.5ZM288.729 263.5C289.005 263.5 289.229 263.276 289.229 263C289.229 262.724 289.005 262.5 288.729 262.5V263.5ZM282.604 262.5C282.328 262.5 282.104 262.724 282.104 263C282.104 263.276 282.328 263.5 282.604 263.5V262.5ZM272.396 263.5C272.672 263.5 272.896 263.276 272.896 263C272.896 262.724 272.672 262.5 272.396 262.5V263.5ZM266.271 262.5C265.995 262.5 265.771 262.724 265.771 263C265.771 263.276 265.995 263.5 266.271 263.5V262.5ZM256.062 263.5C256.339 263.5 256.562 263.276 256.562 263C256.562 262.724 256.339 262.5 256.062 262.5V263.5ZM249.938 262.5C249.661 262.5 249.438 262.724 249.438 263C249.438 263.276 249.661 263.5 249.938 263.5V262.5ZM239.729 263.5C240.005 263.5 240.229 263.276 240.229 263C240.229 262.724 240.005 262.5 239.729 262.5V263.5ZM233.604 262.5C233.328 262.5 233.104 262.724 233.104 263C233.104 263.276 233.328 263.5 233.604 263.5V262.5ZM223.396 263.5C223.672 263.5 223.896 263.276 223.896 263C223.896 262.724 223.672 262.5 223.396 262.5V263.5ZM217.271 262.5C216.995 262.5 216.771 262.724 216.771 263C216.771 263.276 216.995 263.5 217.271 263.5V262.5ZM207.062 263.5C207.339 263.5 207.562 263.276 207.562 263C207.562 262.724 207.339 262.5 207.062 262.5V263.5ZM200.938 262.5C200.661 262.5 200.438 262.724 200.438 263C200.438 263.276 200.661 263.5 200.938 263.5V262.5ZM190.729 263.5C191.005 263.5 191.229 263.276 191.229 263C191.229 262.724 191.005 262.5 190.729 262.5V263.5ZM184.604 262.5C184.328 262.5 184.104 262.724 184.104 263C184.104 263.276 184.328 263.5 184.604 263.5V262.5ZM174.396 263.5C174.672 263.5 174.896 263.276 174.896 263C174.896 262.724 174.672 262.5 174.396 262.5V263.5ZM168.271 262.5C167.995 262.5 167.771 262.724 167.771 263C167.771 263.276 167.995 263.5 168.271 263.5V262.5ZM158.063 263.5C158.339 263.5 158.563 263.276 158.563 263C158.563 262.724 158.339 262.5 158.063 262.5V263.5ZM155.5 259.531C155.5 259.255 155.276 259.031 155 259.031C154.724 259.031 154.5 259.255 154.5 259.531H155.5ZM154.5 247.969C154.5 248.245 154.724 248.469 155 248.469C155.276 248.469 155.5 248.245 155.5 247.969H154.5ZM155.5 241.031C155.5 240.755 155.276 240.531 155 240.531C154.724 240.531 154.5 240.755 154.5 241.031H155.5ZM154.5 229.469C154.5 229.745 154.724 229.969 155 229.969C155.276 229.969 155.5 229.745 155.5 229.469H154.5ZM351 262.5H347.938V263.5H351V262.5ZM337.729 262.5H331.604V263.5H337.729V262.5ZM321.396 262.5H315.271V263.5H321.396V262.5ZM305.063 262.5H298.938V263.5H305.063V262.5ZM288.729 262.5H282.604V263.5H288.729V262.5ZM272.396 262.5H266.271V263.5H272.396V262.5ZM256.062 262.5H249.938V263.5H256.062V262.5ZM239.729 262.5H233.604V263.5H239.729V262.5ZM223.396 262.5L217.271 262.5V263.5L223.396 263.5V262.5ZM207.062 262.5H200.938V263.5H207.062V262.5ZM190.729 262.5H184.604V263.5H190.729V262.5ZM174.396 262.5H168.271V263.5H174.396V262.5ZM158.063 262.5H155V263.5H158.063V262.5ZM155.5 263V259.531H154.5V263H155.5ZM155.5 247.969L155.5 241.031H154.5L154.5 247.969H155.5ZM155.5 229.469V226H154.5V229.469H155.5Z" fill="#4A4C4B"/>
<path d="M109 312C108.724 312 108.5 312.224 108.5 312.5C108.5 312.776 108.724 313 109 313V312ZM293.078 312C292.802 312 292.578 312.224 292.578 312.5C292.578 312.776 292.802 313 293.078 313V312ZM283.339 313C283.615 313 283.839 312.776 283.839 312.5C283.839 312.224 283.615 312 283.339 312V313ZM277.495 312C277.219 312 276.995 312.224 276.995 312.5C276.995 312.776 277.219 313 277.495 313V312ZM267.755 313C268.031 313 268.255 312.776 268.255 312.5C268.255 312.224 268.031 312 267.755 312V313ZM261.911 312C261.635 312 261.411 312.224 261.411 312.5C261.411 312.776 261.635 313 261.911 313V312ZM252.172 313C252.448 313 252.672 312.776 252.672 312.5C252.672 312.224 252.448 312 252.172 312V313ZM246.328 312C246.052 312 245.828 312.224 245.828 312.5C245.828 312.776 246.052 313 246.328 313V312ZM236.589 313C236.865 313 237.089 312.776 237.089 312.5C237.089 312.224 236.865 312 236.589 312V313ZM230.745 312C230.469 312 230.245 312.224 230.245 312.5C230.245 312.776 230.469 313 230.745 313V312ZM221.005 313C221.281 313 221.505 312.776 221.505 312.5C221.505 312.224 221.281 312 221.005 312V313ZM215.161 312C214.885 312 214.661 312.224 214.661 312.5C214.661 312.776 214.885 313 215.161 313V312ZM205.422 313C205.698 313 205.922 312.776 205.922 312.5C205.922 312.224 205.698 312 205.422 312V313ZM199.578 312C199.302 312 199.078 312.224 199.078 312.5C199.078 312.776 199.302 313 199.578 313V312ZM189.839 313C190.115 313 190.339 312.776 190.339 312.5C190.339 312.224 190.115 312 189.839 312V313ZM183.995 312C183.719 312 183.495 312.224 183.495 312.5C183.495 312.776 183.719 313 183.995 313V312ZM174.255 313C174.531 313 174.755 312.776 174.755 312.5C174.755 312.224 174.531 312 174.255 312V313ZM168.411 312C168.135 312 167.911 312.224 167.911 312.5C167.911 312.776 168.135 313 168.411 313V312ZM158.672 313C158.948 313 159.172 312.776 159.172 312.5C159.172 312.224 158.948 312 158.672 312V313ZM152.828 312C152.552 312 152.328 312.224 152.328 312.5C152.328 312.776 152.552 313 152.828 313V312ZM143.089 313C143.365 313 143.589 312.776 143.589 312.5C143.589 312.224 143.365 312 143.089 312V313ZM137.245 312C136.969 312 136.745 312.224 136.745 312.5C136.745 312.776 136.969 313 137.245 313V312ZM127.505 313C127.781 313 128.005 312.776 128.005 312.5C128.005 312.224 127.781 312 127.505 312V313ZM121.661 312C121.385 312 121.161 312.224 121.161 312.5C121.161 312.776 121.385 313 121.661 313V312ZM111.922 313C112.198 313 112.422 312.776 112.422 312.5C112.422 312.224 112.198 312 111.922 312V313ZM296 312H293.078V313H296V312ZM283.339 312H277.495V313H283.339V312ZM267.755 312H261.911V313H267.755V312ZM252.172 312H246.328V313H252.172V312ZM236.589 312H230.745V313H236.589V312ZM221.005 312H215.161V313H221.005V312ZM205.422 312H199.578V313H205.422V312ZM189.839 312H183.995V313H189.839V312ZM174.255 312H168.411V313H174.255V312ZM158.672 312H152.828V313H158.672V312ZM143.089 312H137.245V313H143.089V312ZM127.505 312H121.661V313H127.505V312ZM111.922 312H109V313H111.922V312Z" fill="#4A4C4B"/>
<path d="M523 309L683 309V324.798V340" stroke="#4A4C4B" stroke-linecap="round" stroke-dasharray="6 10"/>
<rect x="622" y="52" width="103" height="71" rx="8" fill="#D9D9D9"/>
<rect x="80" y="147" width="103" height="71" rx="8" fill="#D9D9D9"/>
<rect y="279" width="103" height="71" rx="8" fill="#D9D9D9"/>
<rect x="721" y="210" width="103" height="71" rx="8" fill="#D9D9D9"/>
<rect x="618" y="345" width="103" height="71" rx="8" fill="#D9D9D9"/>
</svg>
