<svg width="2" height="169" viewBox="0 0 2 169" fill="none" xmlns="http://www.w3.org/2000/svg">
<path d="M0.5 168C0.5 168.276 0.723858 168.5 1 168.5C1.27614 168.5 1.5 168.276 1.5 168H0.5ZM1.5 165.136C1.5 164.86 1.27614 164.636 1 164.636C0.723858 164.636 0.5 164.86 0.5 165.136H1.5ZM0.5 155.591C0.5 155.867 0.723858 156.091 1 156.091C1.27614 156.091 1.5 155.867 1.5 155.591H0.5ZM1.5 149.864C1.5 149.587 1.27614 149.364 1 149.364C0.723858 149.364 0.5 149.587 0.5 149.864H1.5ZM0.5 140.318C0.5 140.594 0.723858 140.818 1 140.818C1.27614 140.818 1.5 140.594 1.5 140.318H0.5ZM1.5 134.591C1.5 134.315 1.27614 134.091 1 134.091C0.723858 134.091 0.5 134.315 0.5 134.591H1.5ZM0.5 125.045C0.5 125.322 0.723858 125.545 1 125.545C1.27614 125.545 1.5 125.322 1.5 125.045H0.5ZM1.5 119.318C1.5 119.042 1.27614 118.818 1 118.818C0.723858 118.818 0.5 119.042 0.5 119.318H1.5ZM0.5 109.773C0.5 110.049 0.723858 110.273 1 110.273C1.27614 110.273 1.5 110.049 1.5 109.773H0.5ZM1.5 104.045C1.5 103.769 1.27614 103.545 1 103.545C0.723858 103.545 0.5 103.769 0.5 104.045H1.5ZM0.5 94.5C0.5 94.7761 0.723858 95 1 95C1.27614 95 1.5 94.7761 1.5 94.5H0.5ZM1.5 88.7727C1.5 88.4966 1.27614 88.2727 1 88.2727C0.723858 88.2727 0.5 88.4966 0.5 88.7727H1.5ZM0.5 79.2273C0.5 79.5034 0.723858 79.7273 1 79.7273C1.27614 79.7273 1.5 79.5034 1.5 79.2273H0.5ZM1.5 73.5C1.5 73.2239 1.27614 73 1 73C0.723858 73 0.5 73.2239 0.5 73.5H1.5ZM0.5 63.9545C0.5 64.2307 0.723858 64.4545 1 64.4545C1.27614 64.4545 1.5 64.2307 1.5 63.9545H0.5ZM1.5 58.2273C1.5 57.9511 1.27614 57.7273 1 57.7273C0.723858 57.7273 0.5 57.9511 0.5 58.2273H1.5ZM0.5 48.6818C0.5 48.958 0.723858 49.1818 1 49.1818C1.27614 49.1818 1.5 48.958 1.5 48.6818H0.5ZM1.5 42.9545C1.5 42.6784 1.27614 42.4545 1 42.4545C0.723858 42.4545 0.5 42.6784 0.5 42.9545H1.5ZM0.5 33.4091C0.5 33.6852 0.723858 33.9091 1 33.9091C1.27614 33.9091 1.5 33.6852 1.5 33.4091H0.5ZM1.5 27.6818C1.5 27.4057 1.27614 27.1818 1 27.1818C0.723858 27.1818 0.5 27.4057 0.5 27.6818H1.5ZM0.5 18.1364C0.5 18.4125 0.723858 18.6364 1 18.6364C1.27614 18.6364 1.5 18.4125 1.5 18.1364H0.5ZM1.5 12.4091C1.5 12.1329 1.27614 11.9091 1 11.9091C0.723858 11.9091 0.5 12.1329 0.5 12.4091H1.5ZM0.5 2.86362C0.5 3.13976 0.723858 3.36362 1 3.36362C1.27614 3.36362 1.5 3.13976 1.5 2.86362H0.5ZM1.5 168L1.5 165.136H0.5L0.5 168H1.5ZM1.5 155.591L1.5 149.864H0.5L0.5 155.591H1.5ZM1.5 140.318L1.5 134.591H0.5L0.5 140.318H1.5ZM1.5 125.045L1.5 119.318H0.5L0.5 125.045H1.5ZM1.5 109.773L1.5 104.045H0.5L0.5 109.773H1.5ZM1.5 94.5L1.5 88.7727H0.5L0.5 94.5H1.5ZM1.5 79.2273L1.5 73.5H0.5L0.5 79.2273H1.5ZM1.5 63.9545L1.5 58.2273H0.5L0.5 63.9545H1.5ZM1.5 48.6818L1.5 42.9545H0.5L0.5 48.6818H1.5ZM1.5 33.4091L1.5 27.6818H0.5L0.5 33.4091H1.5ZM1.5 18.1364L1.5 12.4091H0.5L0.5 18.1364H1.5ZM1.5 2.86362L1.5 0H0.5L0.5 2.86362H1.5Z" fill="#4A4C4B"/>
</svg>
