<svg width="33" height="51" viewBox="0 0 33 51" fill="none" xmlns="http://www.w3.org/2000/svg">
<path d="M32 1V0.5L32.5 0.5V1L32 1ZM1 1.5C0.723858 1.5 0.5 1.27614 0.5 1C0.5 0.723858 0.723858 0.5 1 0.5L1 1.5ZM3.90625 0.5C4.18239 0.5 4.40625 0.723858 4.40625 1C4.40625 1.27614 4.18239 1.5 3.90625 1.5V0.5ZM13.5938 1.5C13.3176 1.5 13.0938 1.27614 13.0938 1C13.0938 0.723858 13.3176 0.5 13.5938 0.5V1.5ZM19.4062 0.5C19.6824 0.5 19.9062 0.723858 19.9062 1C19.9062 1.27614 19.6824 1.5 19.4062 1.5V0.5ZM29.0938 1.5C28.8176 1.5 28.5938 1.27614 28.5938 1C28.5938 0.723858 28.8176 0.5 29.0938 0.5V1.5ZM32.5 4.125C32.5 4.40114 32.2761 4.625 32 4.625C31.7239 4.625 31.5 4.40114 31.5 4.125H32.5ZM31.5 14.5417C31.5 14.2655 31.7239 14.0417 32 14.0417C32.2761 14.0417 32.5 14.2655 32.5 14.5417H31.5ZM32.5 20.7917C32.5 21.0678 32.2761 21.2917 32 21.2917C31.7239 21.2917 31.5 21.0678 31.5 20.7917H32.5ZM31.5 31.2083C31.5 30.9322 31.7239 30.7083 32 30.7083C32.2761 30.7083 32.5 30.9322 32.5 31.2083H31.5ZM32.5 37.4583C32.5 37.7345 32.2761 37.9583 32 37.9583C31.7239 37.9583 31.5 37.7345 31.5 37.4583H32.5ZM31.5 47.875C31.5 47.5989 31.7239 47.375 32 47.375C32.2761 47.375 32.5 47.5989 32.5 47.875H31.5ZM1 0.5L3.90625 0.5V1.5L1 1.5L1 0.5ZM13.5938 0.5L19.4062 0.5V1.5L13.5938 1.5V0.5ZM29.0938 0.5L32 0.5V1.5L29.0938 1.5V0.5ZM32.5 1V4.125H31.5V1L32.5 1ZM32.5 14.5417V20.7917H31.5V14.5417H32.5ZM32.5 31.2083V37.4583H31.5V31.2083H32.5ZM32.5 47.875V51H31.5V47.875H32.5Z" fill="#4A4C4B"/>
</svg>
