<svg width="2" height="136" viewBox="0 0 2 136" fill="none" xmlns="http://www.w3.org/2000/svg">
<path d="M0.5 135C0.5 135.276 0.723858 135.5 1 135.5C1.27614 135.5 1.5 135.276 1.5 135H0.5ZM1.5 131.836C1.5 131.56 1.27614 131.336 1 131.336C0.723858 131.336 0.5 131.56 0.5 131.836H1.5ZM0.5 121.289C0.5 121.565 0.723858 121.789 1 121.789C1.27614 121.789 1.5 121.565 1.5 121.289H0.5ZM1.5 114.961C1.5 114.685 1.27614 114.461 1 114.461C0.723858 114.461 0.5 114.685 0.5 114.961H1.5ZM0.5 104.414C0.5 104.69 0.723858 104.914 1 104.914C1.27614 104.914 1.5 104.69 1.5 104.414H0.5ZM1.5 98.0859C1.5 97.8098 1.27614 97.5859 1 97.5859C0.723858 97.5859 0.5 97.8098 0.5 98.0859H1.5ZM0.5 87.5391C0.5 87.8152 0.723858 88.0391 1 88.0391C1.27614 88.0391 1.5 87.8152 1.5 87.5391H0.5ZM1.5 81.2109C1.5 80.9348 1.27614 80.7109 1 80.7109C0.723858 80.7109 0.5 80.9348 0.5 81.2109H1.5ZM0.5 70.6641C0.5 70.9402 0.723858 71.1641 1 71.1641C1.27614 71.1641 1.5 70.9402 1.5 70.6641H0.5ZM1.5 64.3359C1.5 64.0598 1.27614 63.8359 1 63.8359C0.723858 63.8359 0.5 64.0598 0.5 64.3359H1.5ZM0.5 53.7891C0.5 54.0652 0.723858 54.2891 1 54.2891C1.27614 54.2891 1.5 54.0652 1.5 53.7891H0.5ZM1.5 47.4609C1.5 47.1848 1.27614 46.9609 1 46.9609C0.723858 46.9609 0.5 47.1848 0.5 47.4609H1.5ZM0.5 36.9141C0.5 37.1902 0.723858 37.4141 1 37.4141C1.27614 37.4141 1.5 37.1902 1.5 36.9141H0.5ZM1.5 30.5859C1.5 30.3098 1.27614 30.0859 1 30.0859C0.723858 30.0859 0.5 30.3098 0.5 30.5859H1.5ZM0.5 20.0391C0.5 20.3152 0.723858 20.5391 1 20.5391C1.27614 20.5391 1.5 20.3152 1.5 20.0391H0.5ZM1.5 13.7109C1.5 13.4348 1.27614 13.2109 1 13.2109C0.723858 13.2109 0.5 13.4348 0.5 13.7109H1.5ZM0.5 3.16406C0.5 3.44022 0.723858 3.66406 1 3.66406C1.27614 3.66406 1.5 3.44022 1.5 3.16406H0.5ZM1.5 135L1.5 131.836H0.5L0.5 135H1.5ZM1.5 121.289L1.5 114.961H0.5L0.5 121.289H1.5ZM1.5 104.414L1.5 98.0859H0.5L0.5 104.414H1.5ZM1.5 87.5391L1.5 81.2109H0.5L0.5 87.5391H1.5ZM1.5 70.6641L1.5 64.3359H0.5L0.5 70.6641H1.5ZM1.5 53.7891L1.5 47.4609H0.5L0.5 53.7891H1.5ZM1.5 36.9141L1.5 30.5859H0.5L0.5 36.9141H1.5ZM1.5 20.0391L1.5 13.7109H0.5L0.5 20.0391H1.5ZM1.5 3.16406L1.5 0H0.5L0.5 3.16406H1.5Z" fill="#4A4C4B"/>
</svg>
