<svg width="20" height="184" viewBox="0 0 20 184" fill="none" xmlns="http://www.w3.org/2000/svg">
<path d="M1 183V183.5H0.5V183H1ZM19 182.5C19.2761 182.5 19.5 182.724 19.5 183C19.5 183.276 19.2761 183.5 19 183.5V182.5ZM15.625 183.5C15.3489 183.5 15.125 183.276 15.125 183C15.125 182.724 15.3489 182.5 15.625 182.5V183.5ZM4.375 182.5C4.65114 182.5 4.875 182.724 4.875 183C4.875 183.276 4.65114 183.5 4.375 183.5V182.5ZM0.5 179.881C0.5 179.605 0.723858 179.381 1 179.381C1.27614 179.381 1.5 179.605 1.5 179.881H0.5ZM1.5 169.483C1.5 169.759 1.27614 169.983 1 169.983C0.723858 169.983 0.5 169.759 0.5 169.483H1.5ZM0.5 163.244C0.5 162.968 0.723858 162.744 1 162.744C1.27614 162.744 1.5 162.968 1.5 163.244H0.5ZM1.5 152.847C1.5 153.123 1.27614 153.347 1 153.347C0.723858 153.347 0.5 153.123 0.5 152.847H1.5ZM0.5 146.608C0.5 146.332 0.723858 146.108 1 146.108C1.27614 146.108 1.5 146.332 1.5 146.608H0.5ZM1.5 136.21C1.5 136.486 1.27614 136.71 1 136.71C0.723858 136.71 0.5 136.486 0.5 136.21H1.5ZM0.5 129.972C0.5 129.695 0.723858 129.472 1 129.472C1.27614 129.472 1.5 129.695 1.5 129.972H0.5ZM1.5 119.574C1.5 119.85 1.27614 120.074 1 120.074C0.723858 120.074 0.5 119.85 0.5 119.574H1.5ZM0.5 113.335C0.5 113.059 0.723858 112.835 1 112.835C1.27614 112.835 1.5 113.059 1.5 113.335H0.5ZM1.5 102.938C1.5 103.214 1.27614 103.438 1 103.438C0.723858 103.438 0.5 103.214 0.5 102.938H1.5ZM0.5 96.6989C0.5 96.4227 0.723858 96.1989 1 96.1989C1.27614 96.1989 1.5 96.4227 1.5 96.6989H0.5ZM1.5 86.3011C1.5 86.5773 1.27614 86.8011 1 86.8011C0.723858 86.8011 0.5 86.5773 0.5 86.3011H1.5ZM0.5 80.0625C0.5 79.7863 0.723858 79.5625 1 79.5625C1.27614 79.5625 1.5 79.7863 1.5 80.0625H0.5ZM1.5 69.6648C1.5 69.9409 1.27614 70.1648 1 70.1648C0.723858 70.1648 0.5 69.9409 0.5 69.6648H1.5ZM0.5 63.4261C0.5 63.15 0.723858 62.9261 1 62.9261C1.27614 62.9261 1.5 63.15 1.5 63.4261H0.5ZM1.5 53.0284C1.5 53.3045 1.27614 53.5284 1 53.5284C0.723858 53.5284 0.5 53.3045 0.5 53.0284H1.5ZM0.5 46.7898C0.5 46.5136 0.723858 46.2898 1 46.2898C1.27614 46.2898 1.5 46.5136 1.5 46.7898H0.5ZM1.5 36.392C1.5 36.6682 1.27614 36.892 1 36.892C0.723858 36.892 0.5 36.6682 0.5 36.392H1.5ZM0.5 30.1534C0.5 29.8773 0.723858 29.6534 1 29.6534C1.27614 29.6534 1.5 29.8773 1.5 30.1534H0.5ZM1.5 19.7557C1.5 20.0318 1.27614 20.2557 1 20.2557C0.723858 20.2557 0.5 20.0318 0.5 19.7557H1.5ZM0.5 13.5171C0.5 13.2409 0.723858 13.0171 1 13.0171C1.27614 13.0171 1.5 13.2409 1.5 13.5171H0.5ZM1.5 3.11934C1.5 3.39548 1.27614 3.61934 1 3.61934C0.723858 3.61934 0.5 3.39548 0.5 3.11934H1.5ZM19 183.5H15.625V182.5H19V183.5ZM4.375 183.5H1V182.5H4.375V183.5ZM0.5 183V179.881H1.5V183H0.5ZM0.5 169.483V163.244H1.5V169.483H0.5ZM0.5 152.847V146.608H1.5V152.847H0.5ZM0.5 136.21V129.972H1.5V136.21H0.5ZM0.5 119.574V113.335H1.5V119.574H0.5ZM0.5 102.938V96.6989H1.5V102.938H0.5ZM0.5 86.3011V80.0625H1.5V86.3011H0.5ZM0.5 69.6648V63.4261H1.5V69.6648H0.5ZM0.5 53.0284L0.5 46.7898H1.5L1.5 53.0284H0.5ZM0.5 36.392L0.5 30.1534H1.5L1.5 36.392H0.5ZM0.5 19.7557L0.5 13.5171H1.5L1.5 19.7557H0.5ZM0.5 3.11934V0H1.5V3.11934H0.5Z" fill="#4A4C4B"/>
</svg>
