<svg width="2" height="125" viewBox="0 0 2 125" fill="none" xmlns="http://www.w3.org/2000/svg">
<path d="M1.5 124.5C1.5 124.776 1.27614 125 1 125C0.723858 125 0.5 124.776 0.5 124.5H1.5ZM0.5 121.582C0.5 121.306 0.723858 121.082 1 121.082C1.27614 121.082 1.5 121.306 1.5 121.582H0.5ZM1.5 111.855C1.5 112.132 1.27614 112.355 1 112.355C0.723858 112.355 0.5 112.132 0.5 111.855H1.5ZM0.5 106.02C0.5 105.743 0.723858 105.52 1 105.52C1.27614 105.52 1.5 105.743 1.5 106.02H0.5ZM1.5 96.293C1.5 96.5691 1.27614 96.793 1 96.793C0.723858 96.793 0.5 96.5691 0.5 96.293H1.5ZM0.5 90.457C0.5 90.1809 0.723858 89.957 1 89.957C1.27614 89.957 1.5 90.1809 1.5 90.457H0.5ZM1.5 80.7305C1.5 81.0066 1.27614 81.2305 1 81.2305C0.723858 81.2305 0.5 81.0066 0.5 80.7305H1.5ZM0.5 74.8945C0.5 74.6184 0.723858 74.3945 1 74.3945C1.27614 74.3945 1.5 74.6184 1.5 74.8945H0.5ZM1.5 65.168C1.5 65.4441 1.27614 65.668 1 65.668C0.723858 65.668 0.5 65.4441 0.5 65.168H1.5ZM0.5 59.332C0.5 59.0559 0.723858 58.832 1 58.832C1.27614 58.832 1.5 59.0559 1.5 59.332H0.5ZM1.5 49.6055C1.5 49.8816 1.27614 50.1055 1 50.1055C0.723858 50.1055 0.5 49.8816 0.5 49.6055H1.5ZM0.5 43.7695C0.5 43.4934 0.723858 43.2695 1 43.2695C1.27614 43.2695 1.5 43.4934 1.5 43.7695H0.5ZM1.5 34.043C1.5 34.3191 1.27614 34.543 1 34.543C0.723858 34.543 0.5 34.3191 0.5 34.043H1.5ZM0.5 28.207C0.5 27.9309 0.723858 27.707 1 27.707C1.27614 27.707 1.5 27.9309 1.5 28.207H0.5ZM1.5 18.4805C1.5 18.7566 1.27614 18.9805 1 18.9805C0.723858 18.9805 0.5 18.7566 0.5 18.4805H1.5ZM0.5 12.6445C0.5 12.3684 0.723858 12.1445 1 12.1445C1.27614 12.1445 1.5 12.3684 1.5 12.6445H0.5ZM1.5 2.91797C1.5 3.19411 1.27614 3.41797 1 3.41797C0.723858 3.41797 0.5 3.19411 0.5 2.91797H1.5ZM0.5 124.5L0.5 121.582H1.5L1.5 124.5H0.5ZM0.5 111.855L0.5 106.02H1.5L1.5 111.855H0.5ZM0.5 96.293L0.5 90.457H1.5L1.5 96.293H0.5ZM0.5 80.7305L0.5 74.8945H1.5L1.5 80.7305H0.5ZM0.5 65.168L0.5 59.332H1.5L1.5 65.168H0.5ZM0.5 49.6055L0.5 43.7695H1.5L1.5 49.6055H0.5ZM0.5 34.043L0.5 28.207H1.5L1.5 34.043H0.5ZM0.5 18.4805L0.5 12.6445H1.5L1.5 18.4805H0.5ZM0.5 2.91797L0.5 0H1.5L1.5 2.91797H0.5Z" fill="#4A4C4B"/>
</svg>
