<svg width="47" height="46" viewBox="0 0 47 46" fill="none" xmlns="http://www.w3.org/2000/svg">
<path d="M11.0827 42.1667C10.5304 42.1667 10.0827 41.719 10.0827 41.1667V39.3333C10.0827 38.7811 10.5304 38.3333 11.0827 38.3333H20.5827C21.135 38.3333 21.5827 37.8856 21.5827 37.3333V31.6667C21.5827 31.1144 21.135 30.6667 20.5827 30.6667H17.7493C15.098 30.6667 12.8382 29.732 10.9701 27.8626C9.10199 25.9932 8.16729 23.7335 8.16602 21.0833C8.16602 19.1667 8.6931 17.4021 9.74726 15.7895C10.6939 14.3414 11.9369 13.2467 13.476 12.5055C13.8024 12.3484 14.0347 12.043 14.0977 11.6863C14.4757 9.54539 15.4936 7.73466 17.1513 6.2541C18.9568 4.64154 21.0728 3.83462 23.4993 3.83335C25.9258 3.83207 28.0425 4.63898 29.8493 6.2541C31.5077 7.73663 32.5251 9.54699 32.9013 11.6852C32.9642 12.0425 33.1968 12.3484 33.5237 12.5057C35.0624 13.246 36.305 14.3406 37.2514 15.7895C38.3056 17.4033 38.8327 19.168 38.8327 21.0833C38.8327 23.7347 37.898 25.9951 36.0286 27.8645C34.1592 29.7339 31.8995 30.668 29.2493 30.6667H26.416C25.8637 30.6667 25.416 31.1144 25.416 31.6667V37.3333C25.416 37.8856 25.8637 38.3333 26.416 38.3333H35.916C36.4683 38.3333 36.916 38.7811 36.916 39.3333V41.1667C36.916 41.719 36.4683 42.1667 35.916 42.1667H11.0827ZM17.7493 26.8333H29.2493C30.8466 26.8333 32.2042 26.2743 33.3223 25.1563C34.4403 24.0382 34.9993 22.6806 34.9993 21.0833C34.9993 19.9333 34.6716 18.8792 34.0161 17.9208C33.3606 16.9625 32.5064 16.2597 31.4535 15.8125L29.965 15.1746C29.6402 15.0354 29.413 14.7351 29.3673 14.3848L29.1535 12.7458C28.9618 11.3083 28.3313 10.1021 27.2618 9.12718C26.1923 8.15223 24.9381 7.6654 23.4993 7.66668C22.0606 7.66796 20.8064 8.15543 19.7369 9.1291C18.6674 10.1028 18.0368 11.3083 17.8452 12.7458L17.6314 14.3848C17.5857 14.7351 17.3585 15.0354 17.0337 15.1746L15.5452 15.8125C14.491 16.2597 13.6368 16.9625 12.9826 17.9208C12.3284 18.8792 12.0006 19.9333 11.9993 21.0833C11.9993 22.6806 12.5584 24.0382 13.6764 25.1563C14.7945 26.2743 16.1521 26.8333 17.7493 26.8333Z" fill="#1CAC78"/>
</svg>
