<svg width="47" height="46" viewBox="0 0 47 46" fill="none" xmlns="http://www.w3.org/2000/svg">
<path fill-rule="evenodd" clip-rule="evenodd" d="M16.5928 12.489C17.3407 11.6643 17.8331 10.6401 18.0102 9.54096C18.1874 8.44178 18.0416 7.31481 17.5905 6.2969C17.1395 5.27899 16.4027 4.41391 15.4694 3.80669C14.5362 3.19948 13.4468 2.87625 12.3335 2.87625C11.2201 2.87625 10.1307 3.19948 9.19749 3.80669C8.26429 4.41391 7.52744 5.27899 7.07641 6.2969C6.62539 7.31481 6.47958 8.44178 6.65669 9.54096C6.8338 10.6401 7.32622 11.6643 8.07416 12.489C7.84416 12.6097 7.62374 12.7401 7.41291 12.88C6.09903 13.7569 5.25666 14.904 4.73053 15.9649C4.10343 17.2427 3.75459 18.6391 3.70703 20.0617V25.875C3.70703 26.6375 4.00993 27.3688 4.5491 27.9079C5.08827 28.4471 5.81953 28.75 6.58203 28.75H13.7695C14.2728 27.7288 14.9368 26.795 15.736 25.9842L15.6987 25.875H6.58203V20.125C6.58203 20.125 6.58203 14.375 12.332 14.375C15.2272 14.375 16.6647 15.8326 17.3777 17.2787C18.0245 16.5485 18.795 15.9275 19.6575 15.4502C18.9322 14.1966 17.8706 13.1708 16.5928 12.489ZM12.332 11.5C13.0945 11.5 13.8258 11.1971 14.365 10.6579C14.9041 10.1188 15.207 9.38749 15.207 8.62499C15.207 7.86249 14.9041 7.13123 14.365 6.59206C13.8258 6.05289 13.0945 5.74999 12.332 5.74999C11.5695 5.74999 10.8383 6.05289 10.2991 6.59206C9.75993 7.13123 9.45703 7.86249 9.45703 8.62499C9.45703 9.38749 9.75993 10.1188 10.2991 10.6579C10.8383 11.1971 11.5695 11.5 12.332 11.5ZM41.082 28.75H33.8945C33.3913 27.7288 32.7273 26.795 31.928 25.9842L31.9654 25.875H41.082V20.125C41.082 20.125 41.082 14.375 35.332 14.375C32.4369 14.375 30.9994 15.8326 30.2864 17.2787C29.636 16.544 28.865 15.9256 28.0065 15.4502C28.7318 14.1966 29.7934 13.1708 31.0713 12.489C30.3233 11.6643 29.8309 10.6401 29.6538 9.54096C29.4767 8.44178 29.6225 7.31481 30.0735 6.2969C30.5246 5.27899 31.2614 4.41391 32.1946 3.80669C33.1278 3.19948 34.2172 2.87625 35.3306 2.87625C36.444 2.87625 37.5334 3.19948 38.4666 3.80669C39.3998 4.41391 40.1366 5.27899 40.5877 6.2969C41.0387 7.31481 41.1845 8.44178 41.0074 9.54096C40.8303 10.6401 40.3378 11.6643 39.5899 12.489C39.8199 12.6097 40.0403 12.7401 40.2512 12.88C41.565 13.7569 42.4074 14.904 42.9335 15.9649C43.5514 17.2114 43.9001 18.5739 43.957 19.964V25.875C43.957 26.6375 43.6541 27.3688 43.115 27.9079C42.5758 28.4471 41.8445 28.75 41.082 28.75ZM35.332 11.5C36.0945 11.5 36.8258 11.1971 37.365 10.6579C37.9041 10.1188 38.207 9.38749 38.207 8.62499C38.207 7.86249 37.9041 7.13123 37.365 6.59206C36.8258 6.05289 36.0945 5.74999 35.332 5.74999C34.5695 5.74999 33.8383 6.05289 33.2991 6.59206C32.7599 7.13123 32.457 7.86249 32.457 8.62499C32.457 9.38749 32.7599 10.1188 33.2991 10.6579C33.8383 11.1971 34.5695 11.5 35.332 11.5Z" fill="#1CAC78"/>
<path fill-rule="evenodd" clip-rule="evenodd" d="M29.582 23C29.582 24.4864 29.0185 25.8434 28.0928 26.864C29.5414 27.6484 30.71 28.8642 31.4364 30.3428C32.0659 31.6175 32.414 33.0128 32.457 34.4339V40.25C32.457 41.0125 32.1541 41.7438 31.615 42.2829C31.0758 42.8221 30.3445 43.125 29.582 43.125H18.082C17.3195 43.125 16.5883 42.8221 16.0491 42.2829C15.5099 41.7438 15.207 41.0125 15.207 40.25V34.4368C15.2084 34.3072 15.2142 34.1778 15.2243 34.0486C15.3183 32.7592 15.66 31.5 16.2305 30.3399C16.9562 28.8618 18.1237 27.646 19.5713 26.8611C18.9443 26.1693 18.4953 25.3352 18.2629 24.4309C18.0306 23.5267 18.0219 22.5794 18.2377 21.6711C18.4535 20.7627 18.8872 19.9206 19.5014 19.2174C20.1156 18.5142 20.8918 17.9712 21.7628 17.6352C22.6339 17.2992 23.5737 17.1804 24.501 17.289C25.4283 17.3977 26.3152 17.7304 27.0851 18.2587C27.855 18.7869 28.4846 19.4946 28.9197 20.3207C29.3547 21.1468 29.582 22.0664 29.582 23ZM18.082 34.5V40.25H29.582V34.5C29.582 34.5 29.582 28.75 23.832 28.75C18.082 28.75 18.082 34.5 18.082 34.5ZM26.707 23C26.707 23.7625 26.4041 24.4938 25.865 25.0329C25.3258 25.5721 24.5945 25.875 23.832 25.875C23.0695 25.875 22.3383 25.5721 21.7991 25.0329C21.2599 24.4938 20.957 23.7625 20.957 23C20.957 22.2375 21.2599 21.5062 21.7991 20.9671C22.3383 20.4279 23.0695 20.125 23.832 20.125C24.5945 20.125 25.3258 20.4279 25.865 20.9671C26.4041 21.5062 26.707 22.2375 26.707 23Z" fill="#1CAC78"/>
</svg>
