<svg width="47" height="46" viewBox="0 0 47 46" fill="none" xmlns="http://www.w3.org/2000/svg">
<path d="M23.1667 7.66668C21.6417 7.66668 20.1791 8.27248 19.1008 9.35081C18.0225 10.4291 17.4167 11.8917 17.4167 13.4167C17.4167 15.7876 18.9155 18.2045 20.7478 20.2093C21.3684 20.8871 21.991 21.4798 22.5386 21.9635C22.898 22.2809 23.4352 22.2804 23.7943 21.9627C24.4203 21.4088 25.0181 20.8236 25.5855 20.2093C27.4178 18.2045 28.9167 15.7895 28.9167 13.4167C28.9167 11.8917 28.3109 10.4291 27.2325 9.35081C26.1542 8.27248 24.6917 7.66668 23.1667 7.66668ZM23.7335 26.8533C23.3921 27.0883 22.9412 27.0884 22.5997 26.8536L22.0815 26.4971C22.0805 26.4964 22.0795 26.4955 22.0785 26.4946C22.0769 26.493 22.075 26.4917 22.073 26.4906L22.0712 26.4897C22.0693 26.4888 22.0676 26.4877 22.066 26.4865L22.0454 26.4711L21.9668 26.4136L21.6908 26.2143C20.3322 25.1915 19.0697 24.047 17.9188 22.7949C15.9178 20.6061 13.5833 17.2749 13.5833 13.4167C13.5833 10.875 14.593 8.43746 16.3902 6.64024C18.1875 4.84301 20.625 3.83334 23.1667 3.83334C25.7083 3.83334 28.1459 4.84301 29.9431 6.64024C31.7403 8.43746 32.75 10.875 32.75 13.4167C32.75 17.273 30.4155 20.608 28.4145 22.7949C27.1858 24.1302 25.83 25.3428 24.3665 26.4155L24.2898 26.4711L24.2671 26.4869C24.2656 26.4878 24.2641 26.4887 24.2626 26.4895L24.2588 26.4914C24.2578 26.4919 24.2568 26.4926 24.256 26.4934C24.2556 26.4939 24.2551 26.4943 24.2545 26.4946L23.7335 26.8533ZM23.1667 13.8958C23.2938 13.8958 23.4156 13.8454 23.5055 13.7555C23.5954 13.6656 23.6458 13.5438 23.6458 13.4167C23.6458 13.2896 23.5954 13.1677 23.5055 13.0779C23.4156 12.988 23.2938 12.9375 23.1667 12.9375C23.0396 12.9375 22.9177 12.988 22.8278 13.0779C22.738 13.1677 22.6875 13.2896 22.6875 13.4167C22.6875 13.5438 22.738 13.6656 22.8278 13.7555C22.9177 13.8454 23.0396 13.8958 23.1667 13.8958ZM19.8125 13.4167C19.8125 12.5271 20.1659 11.674 20.7949 11.0449C21.4239 10.4159 22.2771 10.0625 23.1667 10.0625C24.0562 10.0625 24.9094 10.4159 25.5384 11.0449C26.1675 11.674 26.5208 12.5271 26.5208 13.4167C26.5208 14.3063 26.1675 15.1594 25.5384 15.7884C24.9094 16.4175 24.0562 16.7708 23.1667 16.7708C22.2771 16.7708 21.4239 16.4175 20.7949 15.7884C20.1659 15.1594 19.8125 14.3063 19.8125 13.4167ZM4 20.1667C4 19.6144 4.44772 19.1667 5 19.1667H12.5833C13.1356 19.1667 13.5833 19.6144 13.5833 20.1667V22C13.5833 22.5523 13.1356 23 12.5833 23H8.83333C8.28105 23 7.83333 23.4477 7.83333 24V33.9522C7.83333 34.6659 8.55945 35.1498 9.21817 34.8752L17.101 31.5885C17.3903 31.4678 17.7195 31.4899 17.9902 31.648L28.4127 37.7361C28.7241 37.918 29.1093 37.9182 29.4209 37.7365L38.0038 32.7309C38.3111 32.5517 38.5 32.2228 38.5 31.8671V24C38.5 23.4477 38.0523 23 37.5 23H33.75C33.1977 23 32.75 22.5523 32.75 22V20.1667C32.75 19.6144 33.1977 19.1667 33.75 19.1667H41.3333C41.8856 19.1667 42.3333 19.6144 42.3333 20.1667V34.0675C42.3333 34.4232 42.1445 34.752 41.8373 34.9313L29.4209 42.1753C29.1094 42.3571 28.7241 42.357 28.4126 42.1751L17.7047 35.9202C17.4339 35.7621 17.1048 35.7401 16.8154 35.8608L5.38486 40.6271C4.72614 40.9017 4 40.4178 4 39.7041V20.1667Z" fill="#1CAC78"/>
</svg>
